<?xml version="1.0" standalone="no"?>
<!DOCTYPE svg PUBLIC "-//W3C//DTD SVG 20010904//EN"
 "http://www.w3.org/TR/2001/REC-SVG-20010904/DTD/svg10.dtd">
<svg version="1.0" xmlns="http://www.w3.org/2000/svg"
 width="512.000000pt" height="512.000000pt" viewBox="0 0 512.000000 512.000000"
 preserveAspectRatio="xMidYMid meet">
<g transform="translate(0.000000,512.000000) scale(0.100000,-0.100000)"
fill="#000000" stroke="none">
<path d="M430 4880 c0 -5 5 -10 10 -10 6 0 10 5 10 10 0 6 -4 10 -10 10 -5 0
-10 -4 -10 -10z"/>
<path d="M488 4853 c7 -3 16 -2 19 1 4 3 -2 6 -13 5 -11 0 -14 -3 -6 -6z"/>
<path d="M630 4835 c-19 -8 -47 -14 -62 -14 -16 -1 -28 -5 -28 -11 0 -5 -13
-10 -30 -10 -16 0 -30 -4 -30 -10 0 -5 -7 -10 -16 -10 -8 0 -30 -11 -48 -25
-18 -14 -36 -25 -39 -25 -7 0 -85 -78 -107 -107 -25 -33 -40 -62 -40 -78 0 -8
-4 -15 -10 -15 -5 0 -12 -16 -16 -35 -3 -19 -10 -35 -15 -35 -5 0 -9 -64 -9
-142 1 -110 4 -148 15 -162 8 -11 15 -32 15 -48 0 -15 5 -28 10 -28 6 0 10
-11 10 -25 0 -14 5 -25 10 -25 6 0 10 -9 10 -20 0 -22 22 -51 92 -119 61 -60
98 -91 109 -91 5 0 9 -4 9 -10 0 -5 6 -10 14 -10 7 0 24 -10 38 -22 13 -13 36
-29 51 -37 15 -8 27 -18 27 -23 0 -4 7 -8 15 -8 8 0 15 -4 15 -8 0 -5 18 -17
40 -28 22 -10 40 -22 40 -26 0 -5 5 -8 12 -8 6 0 26 -11 44 -25 18 -14 37 -25
43 -25 6 0 11 -4 11 -8 0 -5 16 -14 35 -22 19 -8 35 -17 35 -20 0 -4 18 -15
40 -25 22 -10 40 -22 40 -27 0 -4 9 -8 20 -8 11 0 20 -4 20 -10 0 -5 7 -10 15
-10 9 0 18 -6 21 -13 3 -8 20 -20 39 -27 19 -8 35 -17 35 -20 0 -3 16 -12 35
-20 19 -8 35 -17 35 -21 0 -9 58 -39 77 -39 7 0 13 -4 13 -10 0 -5 6 -10 13
-10 7 0 23 -10 37 -23 14 -13 32 -26 40 -30 8 -4 33 -18 55 -31 22 -14 55 -33
73 -42 17 -9 32 -20 32 -25 0 -5 5 -9 11 -9 6 0 17 -6 24 -12 33 -30 45 -38
55 -38 5 0 10 -4 10 -10 0 -5 7 -10 15 -10 8 0 15 -4 15 -10 0 -5 4 -10 9 -10
6 0 22 -11 37 -25 15 -14 32 -25 38 -25 6 0 18 -9 26 -21 8 -11 28 -28 45 -36
31 -17 125 -111 125 -126 0 -4 6 -15 13 -22 29 -34 37 -45 37 -55 0 -10 20
-50 30 -60 3 -3 14 -23 25 -45 11 -22 29 -48 40 -58 10 -10 20 -26 21 -35 2
-33 16 -60 37 -70 40 -19 68 -21 74 -6 3 8 11 14 19 14 8 0 14 5 14 10 0 6 9
10 19 10 23 0 36 16 21 25 -5 3 -10 12 -10 18 0 7 7 4 15 -7 8 -11 21 -16 30
-13 17 7 21 27 4 27 -5 0 -8 4 -4 10 3 5 11 7 18 4 7 -2 21 4 31 15 10 11 23
18 28 15 6 -4 7 2 3 15 -4 12 -2 21 4 21 6 0 11 -6 11 -12 0 -7 11 1 25 17 14
17 34 40 45 53 36 43 57 77 65 107 4 17 10 24 12 18 3 -7 11 -13 19 -13 8 0
14 -6 14 -12 0 -7 39 -51 85 -97 47 -46 85 -88 85 -93 0 -4 7 -8 15 -8 8 0 15
-5 15 -11 0 -6 27 -37 60 -69 33 -32 60 -63 60 -70 0 -16 21 -8 34 14 9 13 7
19 -6 27 -10 6 -18 17 -18 24 0 8 -3 15 -7 15 -16 0 -283 276 -283 292 0 5 -7
7 -16 4 -9 -4 -13 -2 -8 5 4 8 -1 9 -15 4 -19 -6 -20 -4 -10 22 5 15 13 30 17
33 4 3 13 15 20 28 10 18 10 22 -3 22 -22 0 -18 17 5 23 24 6 28 52 5 61 -8 3
-15 12 -15 21 0 18 -26 20 -33 3 -3 -8 -6 -6 -6 5 -1 9 4 17 9 17 14 0 12 28
-2 33 -7 2 -9 8 -5 13 4 5 12 2 17 -6 8 -12 23 -1 74 54 36 38 63 73 60 78 -3
4 2 8 10 8 9 0 16 9 16 20 0 11 3 19 8 19 19 -3 32 2 32 14 0 7 16 26 35 41
19 16 35 34 35 42 0 8 5 14 11 14 6 0 8 9 4 20 -4 12 -2 20 5 20 6 0 9 -4 5
-9 -3 -5 -1 -12 5 -16 5 -3 10 -2 10 3 0 5 9 19 20 32 16 18 17 26 8 37 -9 11
-8 17 4 29 14 14 16 14 21 0 4 -10 1 -13 -9 -9 -7 3 -14 1 -14 -5 0 -18 29
-21 35 -4 3 10 21 35 41 56 30 31 34 42 30 69 -5 28 -5 29 4 8 l10 -23 20 25
c23 29 26 55 8 62 -8 3 -14 28 -15 62 -2 31 -6 59 -10 62 -11 9 -15 142 -4
155 15 19 23 117 11 132 -7 7 -10 19 -7 26 4 8 6 7 6 -4 2 -32 31 -21 31 11 0
17 5 33 10 36 6 3 10 17 10 31 0 13 5 24 11 24 8 0 10 13 6 38 -3 20 -3 31 0
25 7 -18 33 -16 33 2 0 17 20 56 34 66 5 4 6 20 3 35 -4 16 -4 23 -1 17 6 -15
34 -18 34 -4 0 13 85 101 98 101 16 0 15 27 0 34 -7 3 -1 3 15 0 16 -4 27 -2
27 5 0 6 9 11 20 11 11 0 20 5 20 10 0 6 6 10 14 10 7 0 19 6 26 14 6 8 17 13
24 10 7 -3 19 2 26 11 7 8 23 15 36 15 13 0 24 5 24 10 0 6 14 10 30 10 35 0
35 -2 14 -43 -32 -60 -34 -67 -34 -92 0 -14 -4 -25 -10 -25 -5 0 -10 -15 -10
-34 0 -21 -6 -36 -15 -40 -8 -3 -15 -14 -15 -25 0 -11 -5 -23 -10 -26 -5 -3
-10 -17 -10 -30 0 -13 -4 -27 -10 -30 -5 -3 -10 -15 -10 -26 0 -19 -2 -26 -33
-87 -9 -19 -17 -44 -17 -57 0 -13 -5 -27 -10 -30 -13 -8 -13 -125 0 -125 6 0
10 -11 10 -25 0 -14 5 -25 10 -25 6 0 10 -6 10 -13 0 -13 30 -47 74 -84 27
-24 61 -30 71 -13 3 6 11 10 17 10 6 0 6 -6 -2 -15 -7 -9 -10 -18 -8 -21 7 -7
39 -8 58 -2 8 3 12 3 8 1 -5 -3 -8 -11 -8 -19 0 -17 41 -19 58 -2 6 6 15 8 19
3 5 -4 2 -10 -4 -12 -24 -9 -13 -23 17 -23 17 0 30 -4 30 -9 0 -12 49 -20 56
-10 3 5 12 9 20 9 8 0 12 -5 9 -10 -4 -6 -12 -8 -18 -4 -7 3 -4 -1 6 -10 11
-8 26 -12 34 -9 9 4 19 -1 25 -10 5 -10 21 -17 38 -17 17 0 30 -4 30 -10 0 -5
15 -10 34 -10 19 0 38 -4 41 -10 3 -5 22 -10 41 -10 19 0 34 5 34 10 0 6 13
10 30 10 63 0 160 77 118 93 -10 4 -10 7 0 18 10 11 12 10 12 -4 0 -9 7 -17
15 -17 18 0 19 29 1 53 -15 20 -36 23 -36 4 0 -7 -9 -19 -20 -27 -24 -17 -26
-30 -5 -30 8 0 15 -4 15 -10 0 -14 -27 -13 -32 1 -3 8 -19 2 -46 -15 -34 -21
-54 -26 -106 -26 -49 0 -65 4 -70 16 -4 12 -13 14 -31 10 -18 -5 -27 -2 -31 9
-4 9 -18 15 -35 15 -16 0 -29 5 -29 10 0 6 -13 10 -30 10 -16 0 -30 5 -30 10
0 6 -12 10 -26 10 -14 0 -32 7 -40 15 -9 8 -26 15 -40 15 -13 0 -24 5 -24 10
0 6 -13 10 -30 10 -16 0 -30 5 -30 10 0 6 -11 10 -24 10 -14 0 -28 -4 -31 -10
-3 -5 -10 -10 -16 -10 -5 0 -9 5 -9 10 0 6 7 10 15 10 21 0 19 19 -2 27 -23 9
-43 29 -43 42 0 6 -4 11 -10 11 -5 0 -10 9 -10 19 0 11 -5 21 -12 23 -7 3 -12
36 -15 90 -2 69 0 87 12 92 8 3 15 13 15 23 0 21 23 89 33 99 4 4 7 15 7 24 0
16 17 59 41 102 5 10 9 27 9 37 0 11 4 23 10 26 6 3 10 19 10 35 0 15 5 30 12
32 6 2 11 18 11 36 0 17 4 29 9 26 4 -3 11 3 14 13 3 10 10 27 16 39 5 11 8
36 6 54 -2 26 -8 34 -25 35 -13 1 -23 -4 -23 -10 0 -7 -11 -10 -28 -7 -18 2
-33 -2 -41 -12 -8 -9 -24 -16 -37 -16 -13 0 -24 -4 -24 -10 0 -5 -9 -10 -20
-10 -11 0 -20 -4 -20 -10 0 -5 -9 -10 -20 -10 -11 0 -20 -3 -20 -7 0 -5 -18
-17 -40 -27 -22 -11 -40 -23 -40 -28 0 -4 -5 -8 -11 -8 -6 0 -26 -16 -45 -35
-18 -19 -37 -35 -41 -35 -5 0 -19 -17 -33 -37 -14 -20 -30 -41 -35 -47 -43
-45 -121 -189 -131 -243 -3 -18 -10 -36 -15 -39 -12 -7 -11 -64 1 -64 6 0 10
-5 10 -10 0 -6 -8 -10 -17 -8 -16 3 -18 -10 -21 -137 -1 -77 2 -149 7 -160 5
-11 12 -36 14 -55 4 -30 -3 -44 -47 -100 -28 -36 -54 -66 -58 -68 -5 -2 -8 -7
-8 -12 0 -5 -12 -21 -27 -37 -16 -15 -46 -50 -68 -77 -22 -27 -77 -87 -122
-133 -46 -46 -83 -88 -83 -92 0 -5 -7 -11 -15 -15 -9 -3 -25 -21 -36 -41 -20
-33 -49 -48 -49 -25 0 6 -11 10 -24 10 -13 0 -26 7 -30 15 -3 8 -12 15 -19 15
-20 0 -69 26 -94 50 -12 11 -25 20 -29 20 -4 0 -31 25 -61 55 -30 30 -58 55
-64 55 -5 0 -9 7 -9 15 0 8 -4 15 -8 15 -4 0 -26 24 -47 52 -43 56 -72 93 -92
114 -7 7 -13 17 -13 23 0 6 -4 11 -8 11 -5 0 -15 12 -23 27 -8 15 -23 37 -34
49 -12 12 -27 35 -35 50 -8 16 -22 36 -30 45 -32 34 -50 60 -50 69 0 6 -4 10
-8 10 -5 0 -17 16 -28 35 -10 19 -22 35 -26 35 -5 0 -8 6 -8 13 0 7 -9 23 -20
35 -11 12 -20 25 -20 29 0 5 -11 20 -25 35 -14 15 -25 32 -25 38 0 6 -11 23
-25 38 -14 15 -25 32 -25 39 0 7 -4 13 -10 13 -5 0 -10 7 -10 15 0 8 -4 15 -8
15 -5 0 -15 12 -23 28 -14 27 -24 42 -46 67 -7 7 -13 18 -13 24 0 6 -4 11 -10
11 -5 0 -10 5 -10 10 0 6 -5 16 -10 23 -46 54 -60 73 -60 82 0 9 -9 21 -71 93
-10 12 -19 26 -19 31 0 5 -4 11 -8 13 -5 2 -26 28 -49 58 -39 53 -119 138
-160 170 -10 8 -37 23 -59 34 -21 10 -47 22 -56 27 -10 5 -29 9 -43 9 -14 0
-25 5 -25 10 0 6 -15 10 -34 10 -19 0 -47 5 -63 11 -45 17 -173 19 -213 4z
m70 -35 c0 -6 9 -6 23 -1 14 5 41 5 68 -1 24 -5 65 -12 92 -15 26 -3 47 -9 47
-14 0 -5 10 -9 23 -9 12 0 31 -7 41 -15 11 -8 30 -15 44 -15 13 0 20 -4 17
-10 -3 -5 3 -10 14 -10 12 0 21 -5 21 -10 0 -6 11 -16 25 -22 14 -6 25 -17 25
-25 0 -14 16 -18 23 -5 2 4 2 2 1 -5 -2 -6 16 -31 39 -55 23 -24 56 -64 72
-90 17 -27 33 -48 38 -48 4 0 7 -7 7 -15 0 -8 5 -15 10 -15 6 0 10 -5 10 -10
0 -6 11 -21 25 -34 14 -13 25 -29 25 -35 0 -16 26 -42 34 -34 3 4 6 -3 6 -15
0 -12 4 -22 8 -22 5 0 17 -18 28 -40 15 -31 23 -38 39 -34 16 4 17 3 5 -5 -10
-8 -12 -13 -4 -18 6 -5 13 -16 17 -26 4 -10 11 -15 17 -12 5 3 10 -3 10 -14 0
-12 5 -21 10 -21 6 0 10 -7 10 -15 0 -8 5 -15 10 -15 6 0 10 -6 10 -13 0 -7
11 -24 25 -39 14 -15 25 -32 25 -38 0 -5 5 -10 10 -10 6 0 10 -4 10 -9 0 -6
11 -22 25 -37 14 -15 25 -31 25 -37 0 -5 8 -17 18 -26 9 -9 22 -24 27 -34 6
-9 43 -64 83 -122 39 -58 72 -109 72 -115 0 -5 5 -10 10 -10 6 0 10 -7 10 -15
0 -8 7 -15 15 -15 8 0 15 -7 15 -15 0 -8 5 -15 10 -15 6 0 10 -6 10 -14 0 -7
11 -25 24 -39 13 -14 22 -27 20 -30 -2 -2 12 -20 31 -40 19 -20 35 -44 35 -52
0 -8 6 -15 13 -15 6 -1 23 -14 37 -30 13 -17 29 -30 36 -30 6 0 11 -8 10 -17
0 -11 6 -17 16 -17 10 1 15 -2 12 -7 -3 -5 1 -16 10 -24 17 -18 30 -20 20 -3
-4 7 -3 8 5 4 6 -4 9 -12 5 -17 -8 -13 30 -49 51 -49 8 0 15 -4 15 -10 0 -5 7
-10 16 -10 9 0 27 -11 40 -25 13 -14 28 -25 34 -25 5 0 18 -4 28 -9 9 -5 38
-19 65 -32 26 -12 52 -28 58 -36 6 -7 18 -13 26 -13 10 0 12 -6 7 -22 -3 -13
-11 -24 -15 -26 -5 -2 -9 -13 -9 -24 0 -10 -7 -26 -15 -35 -8 -8 -13 -18 -10
-23 3 -4 -2 -13 -10 -20 -8 -7 -15 -19 -15 -27 0 -7 -9 -24 -20 -35 -13 -14
-18 -29 -14 -42 4 -17 3 -18 -5 -6 -9 13 -17 9 -47 -25 -54 -60 -111 -119
-126 -130 -32 -23 -54 -36 -70 -41 -10 -4 -18 -10 -18 -15 0 -5 -9 -9 -21 -9
-11 0 -18 -3 -15 -8 2 -4 -6 -12 -19 -18 -22 -11 -23 -10 -14 13 12 32 12 33
-5 33 -8 0 -16 -6 -19 -12 -2 -8 -8 -9 -13 -4 -5 5 -4 11 4 13 14 5 16 33 2
33 -5 0 -10 7 -10 15 0 9 -9 15 -22 15 -18 0 -20 2 -8 10 12 8 11 14 -8 47
-13 21 -26 46 -29 56 -3 9 -9 17 -14 17 -5 0 -9 9 -9 19 0 10 -7 21 -15 25 -8
3 -12 12 -9 20 3 9 -1 22 -9 31 -8 8 -18 20 -20 27 -4 10 -8 9 -17 -2 -8 -12
-9 -9 -4 13 4 17 2 27 -5 27 -6 0 -11 -5 -11 -11 0 -5 -5 -7 -12 -3 -9 6 -9 9
0 12 22 7 12 23 -10 18 -13 -3 -17 -3 -10 0 20 9 14 26 -8 19 -15 -5 -18 -3
-14 9 4 10 1 16 -9 16 -9 0 -25 12 -36 26 -17 22 -23 24 -36 14 -18 -15 -20 0
-2 19 10 11 8 13 -10 8 -16 -3 -23 -1 -23 9 0 8 -7 14 -15 14 -9 0 -18 7 -21
15 -4 8 -10 15 -16 15 -5 0 -6 -6 -2 -12 4 -7 -6 2 -23 20 -16 17 -34 32 -40
32 -6 0 -22 11 -37 25 -15 14 -29 25 -32 25 -8 0 -89 55 -92 63 -2 4 -10 7
-18 7 -8 0 -14 5 -14 10 0 6 -7 10 -15 10 -8 0 -15 5 -15 10 0 6 -7 10 -15 10
-8 0 -15 5 -15 10 0 6 -7 10 -15 10 -7 0 -18 6 -22 13 -4 7 -23 17 -41 23 -19
5 -33 13 -32 17 2 13 -43 45 -56 40 -6 -2 -14 3 -18 12 -3 10 -12 15 -21 11
-8 -3 -14 0 -12 7 1 6 -8 13 -20 15 -13 2 -23 10 -23 18 0 8 -4 13 -9 9 -5 -3
-16 2 -24 10 -17 17 -42 21 -32 5 3 -5 2 -10 -4 -10 -5 0 -13 5 -16 10 -3 6
-1 10 4 10 6 0 11 5 11 11 0 7 -10 9 -27 5 -20 -5 -24 -4 -13 3 12 9 12 11 -3
15 -9 4 -25 9 -34 13 -10 3 -22 5 -28 4 -5 -2 -7 1 -3 5 10 10 -29 37 -42 29
-6 -4 -7 1 -3 11 5 15 2 16 -27 10 -31 -6 -32 -5 -16 7 17 13 16 15 -23 30
-22 9 -41 22 -41 28 0 7 -9 9 -25 5 -20 -5 -23 -3 -18 11 5 12 2 15 -10 10
-11 -4 -18 1 -22 14 -5 14 -12 18 -26 14 -13 -4 -19 -2 -19 9 0 9 -7 16 -15
16 -8 0 -15 5 -15 10 0 6 -7 10 -15 10 -7 0 -19 8 -24 18 -9 15 -12 15 -21 2
-8 -12 -10 -11 -10 7 0 16 -5 20 -20 16 -15 -4 -20 0 -20 16 0 11 -5 21 -11
21 -5 0 -7 -4 -4 -10 3 -5 1 -10 -4 -10 -6 0 -11 5 -11 11 0 14 -41 48 -57 49
-7 0 -13 4 -13 8 0 5 -11 15 -25 22 -14 7 -23 16 -20 18 3 3 -5 10 -18 16 -12
7 -28 24 -36 40 -10 21 -15 25 -22 15 -4 -7 -11 -10 -15 -6 -4 3 -2 13 4 20 9
11 6 19 -13 37 -14 13 -25 34 -25 46 0 13 -4 26 -10 29 -5 3 -10 19 -10 35 0
15 -6 30 -12 32 -19 7 -20 274 -1 289 7 6 13 20 13 30 0 11 5 19 10 19 6 0 10
7 10 15 0 16 49 97 63 103 4 2 7 11 7 20 0 8 2 13 6 10 3 -3 21 10 41 28 20
19 42 34 50 34 7 0 16 7 19 15 4 8 15 15 25 15 10 0 19 5 19 10 0 6 11 10 25
10 14 0 25 5 25 10 0 6 19 10 43 10 24 0 52 7 63 15 22 17 44 19 44 5z m2946
-178 c-4 -3 -12 0 -18 6 -7 7 -20 12 -29 12 -10 0 -21 5 -25 11 -5 8 3 10 25
7 18 -3 35 0 39 6 4 6 8 1 10 -12 2 -13 1 -26 -2 -30z m-3348 -37 c-3 -3 -9 2
-12 12 -6 14 -5 15 5 6 7 -7 10 -15 7 -18z m3189 19 c-3 -3 -12 -4 -19 -1 -8
3 -5 6 6 6 11 1 17 -2 13 -5z m-307 -248 c0 -3 -4 -8 -10 -11 -5 -3 -10 -1
-10 4 0 6 5 11 10 11 6 0 10 -2 10 -4z m-70 -136 c0 -5 -2 -10 -4 -10 -3 0 -8
5 -11 10 -3 6 -1 10 4 10 6 0 11 -4 11 -10z m-20 -54 c0 -3 -4 -8 -10 -11 -5
-3 -10 -1 -10 4 0 6 5 11 10 11 6 0 10 -2 10 -4z m357 -138 c-3 -8 -6 -5 -6 6
-1 11 2 17 5 13 3 -3 4 -12 1 -19z m-3152 -28 c3 -5 1 -10 -4 -10 -6 0 -11 5
-11 10 0 6 2 10 4 10 3 0 8 -4 11 -10z m3155 -16 c0 -14 -4 -23 -9 -20 -5 3
-7 15 -4 26 7 28 13 25 13 -6z m17 -66 c-3 -8 -6 -5 -6 6 -1 11 2 17 5 13 3
-3 4 -12 1 -19z m343 -198 c0 -5 -4 -10 -10 -10 -5 0 -10 5 -10 10 0 6 5 10
10 10 6 0 10 -4 10 -10z m-2970 -130 c0 -5 -5 -10 -11 -10 -5 0 -7 5 -4 10 3
6 8 10 11 10 2 0 4 -4 4 -10z m2165 -40 c-24 -26 -32 -18 -9 9 10 11 20 18 23
16 2 -3 -4 -14 -14 -25z m-95 -110 c0 -5 -5 -10 -11 -10 -5 0 -7 5 -4 10 3 6
8 10 11 10 2 0 4 -4 4 -10z m-217 -235 c-3 -9 -8 -14 -10 -11 -3 3 -2 9 2 15
9 16 15 13 8 -4z m-83 -95 c0 -5 -4 -10 -10 -10 -5 0 -10 5 -10 10 0 6 5 10
10 10 6 0 10 -4 10 -10z m-50 -65 c-7 -8 -16 -15 -21 -15 -5 0 -6 7 -3 15 4 8
13 15 21 15 13 0 13 -3 3 -15z"/>
<path d="M510 4700 c-13 -8 -12 -10 3 -10 9 0 17 5 17 10 0 12 -1 12 -20 0z"/>
<path d="M958 4693 c7 -3 16 -2 19 1 4 3 -2 6 -13 5 -11 0 -14 -3 -6 -6z"/>
<path d="M400 4630 c0 -5 4 -10 9 -10 6 0 13 5 16 10 3 6 -1 10 -9 10 -9 0
-16 -4 -16 -10z"/>
<path d="M495 4630 c4 -6 11 -8 16 -5 14 9 11 15 -7 15 -8 0 -12 -5 -9 -10z"/>
<path d="M354 4595 c-9 -14 -14 -29 -10 -32 4 -4 9 3 13 16 3 13 11 20 19 17
8 -3 14 1 14 9 0 23 -18 18 -36 -10z"/>
<path d="M1030 4610 c0 -5 11 -10 25 -10 14 0 25 5 25 10 0 6 -11 10 -25 10
-14 0 -25 -4 -25 -10z"/>
<path d="M448 4603 c6 -2 18 -2 25 0 6 3 1 5 -13 5 -14 0 -19 -2 -12 -5z"/>
<path d="M755 4514 c-49 -35 -101 -72 -115 -81 -28 -20 -162 -115 -170 -120
-6 -5 126 -132 167 -161 49 -34 121 -26 170 20 27 26 39 74 23 93 -19 22 -32
18 -20 -6 12 -22 6 -69 -9 -69 -5 0 -16 -6 -24 -14 -32 -33 -103 -36 -127 -7
-3 4 -18 14 -33 24 -15 10 -25 22 -22 27 4 6 -1 7 -11 3 -10 -3 -15 -2 -12 3
3 5 0 15 -8 22 -8 7 -14 10 -14 7 0 -3 -11 7 -25 22 l-25 28 30 27 c19 18 36
25 47 21 10 -4 14 -2 10 5 -6 9 41 52 58 52 3 0 13 6 20 13 34 29 90 67 102
68 5 0 12 7 16 15 4 8 22 21 38 30 35 17 62 5 52 -24 -4 -15 -3 -15 6 -2 9 13
11 12 11 -3 0 -10 4 -16 9 -12 12 7 53 -50 43 -59 -4 -4 0 -6 8 -4 9 2 14 -4
14 -14 -1 -10 2 -15 7 -12 5 3 9 -3 9 -13 0 -25 -35 -75 -45 -66 -4 5 -5 3 -1
-4 9 -16 -25 -33 -68 -33 -20 0 -36 -4 -36 -9 0 -17 85 -5 113 15 14 10 34 36
43 57 17 37 17 40 0 70 -16 30 -78 100 -122 139 -18 15 -24 13 -109 -48z"/>
<path d="M1123 4503 c2 -12 6 -26 10 -29 11 -11 8 19 -3 36 -8 12 -9 10 -7 -7z"/>
<path d="M794 4486 c-10 -8 -22 -14 -26 -15 -5 0 -7 -2 -5 -4 1 -1 -8 -13 -20
-26 -17 -19 -20 -28 -12 -43 6 -11 17 -22 25 -25 7 -3 12 -8 10 -12 -7 -10 22
-44 32 -37 6 3 26 -1 46 -9 41 -17 70 -20 46 -5 -13 9 -13 10 1 10 8 0 25 13
37 30 24 31 28 45 12 35 -5 -3 -10 3 -10 14 0 11 -13 30 -30 42 -16 12 -27 26
-24 30 6 10 -35 33 -44 25 -3 -4 16 -29 43 -57 49 -49 49 -50 35 -77 -11 -19
-25 -28 -47 -30 -25 -3 -39 5 -78 44 -41 40 -45 48 -31 56 29 16 71 56 65 62
-3 3 -14 -1 -25 -8z m-3 -143 c13 -16 12 -17 -3 -4 -10 7 -18 15 -18 17 0 8 8
3 21 -13z"/>
<path d="M1217 4469 c6 -22 23 -26 23 -5 0 8 -6 16 -14 19 -10 4 -12 0 -9 -14z"/>
<path d="M281 4464 c0 -11 3 -14 6 -6 3 7 2 16 -1 19 -3 4 -6 -2 -5 -13z"/>
<path d="M1005 4470 c3 -5 8 -10 11 -10 2 0 4 5 4 10 0 6 -5 10 -11 10 -5 0
-7 -4 -4 -10z"/>
<path d="M590 4466 c0 -2 7 -7 16 -10 8 -3 12 -2 9 4 -6 10 -25 14 -25 6z"/>
<path d="M1026 4453 c-6 -14 -5 -15 5 -6 7 7 10 15 7 18 -3 3 -9 -2 -12 -12z"/>
<path d="M351 4434 c0 -11 3 -14 6 -6 3 7 2 16 -1 19 -3 4 -6 -2 -5 -13z"/>
<path d="M570 4446 c0 -2 7 -7 16 -10 8 -3 12 -2 9 4 -6 10 -25 14 -25 6z"/>
<path d="M1091 4434 c0 -11 3 -14 6 -6 3 7 2 16 -1 19 -3 4 -6 -2 -5 -13z"/>
<path d="M1160 4439 c0 -5 5 -7 10 -4 6 3 10 8 10 11 0 2 -4 4 -10 4 -5 0 -10
-5 -10 -11z"/>
<path d="M300 4430 c0 -5 5 -10 11 -10 5 0 7 5 4 10 -3 6 -8 10 -11 10 -2 0
-4 -4 -4 -10z"/>
<path d="M1281 4393 c-1 -16 5 -23 17 -23 10 0 13 3 6 8 -6 4 -14 14 -17 22
-4 10 -6 8 -6 -7z"/>
<path d="M640 4376 c-14 -8 -29 -12 -34 -9 -5 4 -6 2 -3 -4 3 -5 -5 -21 -18
-35 l-24 -26 53 -50 c51 -48 116 -90 116 -75 0 5 13 15 29 24 15 9 30 26 33
37 7 25 -40 104 -56 95 -6 -4 -7 1 -2 13 4 10 4 15 0 12 -4 -4 -18 2 -32 12
-29 23 -30 23 -62 6z m130 -123 c0 -29 -34 -57 -62 -49 -13 3 -46 28 -75 54
l-52 49 46 34 46 34 49 -51 c26 -28 48 -60 48 -71z"/>
<path d="M860 4386 c0 -2 7 -7 16 -10 8 -3 12 -2 9 4 -6 10 -25 14 -25 6z"/>
<path d="M1100 4374 c0 -8 5 -12 10 -9 6 4 8 11 5 16 -9 14 -15 11 -15 -7z"/>
<path d="M1015 4246 c-49 -34 -130 -90 -178 -124 -48 -34 -92 -62 -97 -62 -16
0 -11 -14 14 -38 l25 -23 111 78 c62 43 119 83 129 88 9 6 40 27 68 48 28 20
56 37 62 37 6 0 11 3 11 8 -1 11 -37 52 -47 52 -4 -1 -48 -29 -98 -64z m111
33 c9 -16 -10 -31 -30 -23 -13 5 -14 9 -5 20 14 17 25 18 35 3z m-38 -28 c10
-6 0 -17 -39 -42 -29 -19 -56 -33 -61 -31 -4 1 -8 -4 -8 -11 0 -7 -15 -21 -32
-31 -50 -26 -74 -41 -90 -54 -8 -6 -19 -8 -23 -4 -5 4 -5 2 -1 -5 8 -15 -30
-37 -46 -27 -7 5 -8 3 -3 -6 5 -8 3 -11 -4 -9 -20 7 -14 24 10 27 17 3 19 6 8
13 -12 7 -11 9 2 9 9 0 22 7 29 15 7 8 16 12 21 9 5 -3 9 0 9 6 0 7 7 9 16 6
9 -3 12 -2 9 5 -4 6 2 13 14 16 12 3 21 9 21 13 0 12 80 61 90 55 6 -4 7 1 3
11 -5 14 -3 16 12 10 11 -4 16 -4 12 0 -4 4 1 13 11 20 20 16 23 16 40 5z"/>
<path d="M1180 4301 c0 -6 4 -13 10 -16 6 -3 7 1 4 9 -7 18 -14 21 -14 7z"/>
<path d="M1390 4229 c0 -11 4 -18 10 -14 5 3 7 12 3 20 -7 21 -13 19 -13 -6z"/>
<path d="M1434 4202 c-9 -5 -8 -11 2 -20 12 -11 14 -9 14 8 0 22 0 23 -16 12z"/>
<path d="M300 4189 c0 -5 5 -7 10 -4 6 3 10 8 10 11 0 2 -4 4 -10 4 -5 0 -10
-5 -10 -11z"/>
<path d="M1100 4159 c0 -5 5 -7 10 -4 6 3 10 8 10 11 0 2 -4 4 -10 4 -5 0 -10
-5 -10 -11z"/>
<path d="M1135 4132 c-129 -55 -192 -120 -210 -214 -9 -49 17 -102 68 -139 72
-53 189 -36 288 40 136 105 142 253 14 312 -50 23 -108 23 -160 1z m171 -27
c33 -21 64 -73 64 -107 0 -36 -18 -81 -29 -74 -5 4 -7 -2 -4 -13 3 -13 -11
-30 -56 -64 -33 -26 -72 -49 -86 -53 -14 -3 -28 -10 -31 -15 -3 -5 -31 -9 -63
-9 -62 0 -113 25 -135 65 -6 11 -15 23 -20 26 -5 4 -5 20 -1 35 4 16 8 38 9
50 1 11 7 27 14 35 6 7 23 29 38 47 14 17 34 32 45 32 10 0 18 5 17 11 -2 7
22 23 52 36 63 27 144 26 186 -2z"/>
<path d="M1156 4085 c-32 -17 -60 -20 -51 -5 3 6 -1 7 -10 3 -11 -4 -13 -8 -5
-13 13 -8 -38 -46 -58 -42 -7 2 -12 -1 -11 -5 4 -21 -2 -35 -13 -30 -9 3 -13
-6 -14 -26 -1 -17 -6 -33 -13 -35 -6 -2 -11 -8 -11 -13 0 -6 5 -7 12 -3 7 4 8
3 4 -4 -11 -18 21 -76 53 -95 16 -9 45 -17 64 -17 42 0 112 24 134 45 8 9 21
14 28 11 7 -2 12 1 11 7 0 7 3 13 8 14 14 3 37 63 42 107 5 46 -19 79 -73 102
-41 18 -61 17 -97 -1z m92 -14 c24 -2 62 -53 62 -83 0 -62 -51 -118 -138 -151
-56 -22 -90 -21 -129 3 -39 24 -52 73 -30 116 34 65 138 125 202 118 11 -1 26
-3 33 -3z"/>
<path d="M1180 3896 c0 -2 7 -7 16 -10 8 -3 12 -2 9 4 -6 10 -25 14 -25 6z"/>
<path d="M1345 3959 c-4 -6 -5 -12 -2 -15 2 -3 7 2 10 11 7 17 1 20 -8 4z"/>
<path d="M1450 4130 c0 -5 5 -10 10 -10 6 0 10 5 10 10 0 6 -4 10 -10 10 -5 0
-10 -4 -10 -10z"/>
<path d="M371 4044 c0 -11 3 -14 6 -6 3 7 2 16 -1 19 -3 4 -6 -2 -5 -13z"/>
<path d="M330 4040 c-8 -5 -12 -12 -9 -15 4 -3 12 1 19 10 14 17 11 19 -10 5z"/>
<path d="M1510 4042 c0 -5 7 -9 15 -9 8 0 12 4 9 9 -3 4 -9 8 -15 8 -5 0 -9
-4 -9 -8z"/>
<path d="M887 4000 c3 -11 7 -20 9 -20 2 0 4 9 4 20 0 11 -4 20 -9 20 -5 0 -7
-9 -4 -20z"/>
<path d="M1550 4001 c0 -11 5 -23 10 -26 6 -3 10 3 10 14 0 11 -4 23 -10 26
-5 3 -10 -3 -10 -14z"/>
<path d="M355 4000 c-3 -5 -1 -10 4 -10 6 0 11 5 11 10 0 6 -2 10 -4 10 -3 0
-8 -4 -11 -10z"/>
<path d="M525 3967 c-4 -10 -5 -21 -1 -24 10 -10 18 4 13 24 -4 17 -4 17 -12
0z"/>
<path d="M1599 3917 c7 -7 14 -8 21 -1 6 6 2 10 -12 11 -16 2 -18 -1 -9 -10z"/>
<path d="M1421 3842 c-53 -50 -58 -77 -32 -165 27 -91 26 -103 -3 -122 -22
-15 -27 -15 -55 -1 -57 30 -77 82 -45 118 16 17 15 19 -9 43 l-25 26 -25 -33
c-34 -45 -42 -89 -23 -126 47 -92 115 -126 191 -98 93 36 111 85 78 209 -26
93 -23 109 17 120 29 8 80 -43 80 -80 0 -16 -5 -34 -12 -41 -8 -8 -5 -16 13
-31 13 -11 28 -20 32 -21 4 0 17 19 27 43 42 95 -26 197 -131 197 -30 0 -46
-8 -78 -38z m167 -19 c13 -13 20 -28 16 -35 -4 -6 -3 -8 3 -5 26 16 23 -92 -2
-113 -19 -16 -24 0 -16 47 8 39 6 42 -36 81 -45 42 -60 45 -95 14 -10 -8 -18
-24 -18 -34 0 -11 -4 -17 -9 -13 -5 3 -3 -9 6 -26 13 -26 13 -33 2 -40 -11 -7
-11 -9 2 -9 21 0 40 -86 26 -118 -6 -12 -14 -22 -19 -22 -4 0 -8 -7 -8 -15 0
-8 -7 -15 -15 -15 -8 0 -15 -4 -15 -9 0 -16 -59 -23 -94 -11 -49 16 -96 72
-96 114 0 48 19 96 35 90 10 -4 11 -12 5 -30 -15 -39 -8 -75 22 -102 15 -14
25 -28 23 -32 -4 -6 19 -10 65 -11 13 -1 32 8 41 20 9 11 20 17 24 13 5 -4 5
-2 1 5 -3 6 -9 31 -12 55 -4 24 -12 58 -20 77 -18 43 -18 65 2 102 9 19 21 29
30 25 7 -3 13 0 11 6 -1 7 14 17 33 24 40 13 72 4 108 -33z"/>
<path d="M1620 3871 c0 -5 5 -13 10 -16 6 -3 10 -2 10 4 0 5 -4 13 -10 16 -5
3 -10 2 -10 -4z"/>
<path d="M880 3860 c0 -5 7 -10 16 -10 8 0 12 5 9 10 -3 6 -10 10 -16 10 -5 0
-9 -4 -9 -10z"/>
<path d="M691 3774 c0 -11 3 -14 6 -6 3 7 2 16 -1 19 -3 4 -6 -2 -5 -13z"/>
<path d="M1276 3753 c-6 -14 -5 -15 5 -6 7 7 10 15 7 18 -3 3 -9 -2 -12 -12z"/>
<path d="M665 3750 c-3 -5 -1 -10 4 -10 6 0 11 5 11 10 0 6 -2 10 -4 10 -3 0
-8 -4 -11 -10z"/>
<path d="M1730 3748 c0 -9 5 -20 10 -23 13 -8 13 5 0 25 -8 13 -10 13 -10 -2z"/>
<path d="M1290 3736 c0 -2 8 -10 18 -17 15 -13 16 -12 3 4 -13 16 -21 21 -21
13z"/>
<path d="M690 3720 c0 -5 5 -10 10 -10 6 0 10 5 10 10 0 6 -4 10 -10 10 -5 0
-10 -4 -10 -10z"/>
<path d="M1301 3634 c0 -11 3 -14 6 -6 3 7 2 16 -1 19 -3 4 -6 -2 -5 -13z"/>
<path d="M885 3630 c3 -5 10 -10 16 -10 5 0 9 5 9 10 0 6 -7 10 -16 10 -8 0
-12 -4 -9 -10z"/>
<path d="M1320 3632 c0 -5 6 -17 14 -27 13 -18 14 -18 9 8 -5 24 -23 39 -23
19z"/>
<path d="M921 3594 c0 -11 3 -14 6 -6 3 7 2 16 -1 19 -3 4 -6 -2 -5 -13z"/>
<path d="M1161 3584 c0 -11 3 -14 6 -6 3 7 2 16 -1 19 -3 4 -6 -2 -5 -13z"/>
<path d="M1364 3592 c3 -5 0 -13 -6 -15 -8 -3 -6 -6 5 -6 19 -1 23 14 5 25 -6
4 -8 3 -4 -4z"/>
<path d="M1863 3570 c14 -11 29 -20 33 -20 4 0 -1 9 -11 20 -10 11 -25 20 -33
20 -9 0 -6 -7 11 -20z"/>
<path d="M1465 3490 c-3 -5 -1 -10 4 -10 6 0 11 5 11 10 0 6 -2 10 -4 10 -3 0
-8 -4 -11 -10z"/>
<path d="M1830 3490 c0 -5 5 -10 11 -10 5 0 7 5 4 10 -3 6 -8 10 -11 10 -2 0
-4 -4 -4 -10z"/>
<path d="M1155 3470 c3 -5 8 -10 11 -10 2 0 4 5 4 10 0 6 -5 10 -11 10 -5 0
-7 -4 -4 -10z"/>
<path d="M1254 3425 c-15 -14 -23 -25 -17 -25 5 0 20 11 33 25 13 14 21 25 17
25 -3 0 -18 -11 -33 -25z"/>
<path d="M1190 3430 c0 -5 10 -10 23 -10 18 0 19 2 7 10 -19 13 -30 13 -30 0z"/>
<path d="M2000 3390 c0 -5 5 -10 11 -10 5 0 7 5 4 10 -3 6 -8 10 -11 10 -2 0
-4 -4 -4 -10z"/>
<path d="M2032 3345 c12 -14 23 -23 25 -21 6 5 -29 46 -39 46 -4 0 2 -11 14
-25z"/>
<path d="M2070 3300 c0 -5 5 -10 11 -10 5 0 7 5 4 10 -3 6 -8 10 -11 10 -2 0
-4 -4 -4 -10z"/>
<path d="M1438 3283 c7 -3 16 -2 19 1 4 3 -2 6 -13 5 -11 0 -14 -3 -6 -6z"/>
<path d="M1503 3273 c-7 -3 -13 -8 -13 -12 0 -9 37 -8 45 1 8 8 -17 16 -32 11z"/>
<path d="M2180 3180 c0 -5 5 -10 10 -10 6 0 10 5 10 10 0 6 -4 10 -10 10 -5 0
-10 -4 -10 -10z"/>
<path d="M1873 3165 c0 -8 4 -12 9 -9 5 3 6 10 3 15 -9 13 -12 11 -12 -6z"/>
<path d="M2242 3134 c10 -10 20 -16 22 -13 3 3 -5 11 -17 18 -21 13 -21 12 -5
-5z"/>
<path d="M1800 3110 c0 -5 5 -10 11 -10 5 0 7 5 4 10 -3 6 -8 10 -11 10 -2 0
-4 -4 -4 -10z"/>
<path d="M1868 3103 c7 -3 16 -2 19 1 4 3 -2 6 -13 5 -11 0 -14 -3 -6 -6z"/>
<path d="M1730 3080 c0 -5 5 -10 10 -10 6 0 10 5 10 10 0 6 -4 10 -10 10 -5 0
-10 -4 -10 -10z"/>
<path d="M1775 3071 c-3 -5 -1 -12 5 -16 5 -3 10 1 10 9 0 18 -6 21 -15 7z"/>
<path d="M2365 3020 c-3 -5 -1 -10 4 -10 6 0 11 5 11 10 0 6 -2 10 -4 10 -3 0
-8 -4 -11 -10z"/>
<path d="M2390 3000 c0 -5 9 -12 20 -15 11 -3 20 -11 20 -16 0 -5 7 -9 17 -9
15 0 15 2 -1 19 -19 21 -56 34 -56 21z"/>
<path d="M2360 2970 c0 -5 5 -10 10 -10 6 0 10 5 10 10 0 6 -4 10 -10 10 -5 0
-10 -4 -10 -10z"/>
<path d="M2505 2970 c-3 -5 -1 -10 4 -10 6 0 11 5 11 10 0 6 -2 10 -4 10 -3 0
-8 -4 -11 -10z"/>
<path d="M2396 2933 c-6 -14 -5 -15 5 -6 7 7 10 15 7 18 -3 3 -9 -2 -12 -12z"/>
<path d="M1930 2930 c0 -5 5 -10 10 -10 6 0 10 5 10 10 0 6 -4 10 -10 10 -5 0
-10 -4 -10 -10z"/>
<path d="M2445 2920 c-3 -5 -1 -10 4 -10 6 0 11 5 11 10 0 6 -2 10 -4 10 -3 0
-8 -4 -11 -10z"/>
<path d="M2517 2923 c-4 -3 -7 -13 -7 -22 1 -13 3 -13 11 2 11 19 8 33 -4 20z"/>
<path d="M1960 2890 c0 -5 5 -10 11 -10 5 0 7 5 4 10 -3 6 -8 10 -11 10 -2 0
-4 -4 -4 -10z"/>
<path d="M2372 2860 c0 -14 2 -19 5 -12 2 6 2 18 0 25 -3 6 -5 1 -5 -13z"/>
<path d="M1980 2860 c0 -5 5 -10 11 -10 5 0 7 5 4 10 -3 6 -8 10 -11 10 -2 0
-4 -4 -4 -10z"/>
<path d="M2465 2841 c-3 -5 -1 -12 5 -16 5 -3 10 1 10 9 0 18 -6 21 -15 7z"/>
<path d="M2326 2738 c3 -5 10 -6 15 -3 13 9 11 12 -6 12 -8 0 -12 -4 -9 -9z"/>
<path d="M2400 2735 c-6 -8 -10 -19 -8 -24 1 -6 8 1 15 14 13 28 11 31 -7 10z"/>
<path d="M2095 2670 c-3 -5 -1 -10 4 -10 6 0 11 5 11 10 0 6 -2 10 -4 10 -3 0
-8 -4 -11 -10z"/>
<path d="M2300 2670 c0 -5 5 -10 11 -10 5 0 7 5 4 10 -3 6 -8 10 -11 10 -2 0
-4 -4 -4 -10z"/>
<path d="M2140 2661 c0 -6 4 -13 10 -16 6 -3 7 1 4 9 -7 18 -14 21 -14 7z"/>
<path d="M2160 2550 c14 -10 27 -17 29 -15 8 8 -22 35 -38 35 -12 0 -10 -5 9
-20z"/>
<path d="M3500 4720 c0 -5 7 -10 16 -10 8 0 12 5 9 10 -3 6 -10 10 -16 10 -5
0 -9 -4 -9 -10z"/>
<path d="M235 4699 c-4 -6 -5 -12 -2 -15 2 -3 7 2 10 11 7 17 1 20 -8 4z"/>
<path d="M3712 4590 c0 -14 2 -19 5 -12 2 6 2 18 0 25 -3 6 -5 1 -5 -13z"/>
<path d="M3098 4563 c7 -3 16 -2 19 1 4 3 -2 6 -13 5 -11 0 -14 -3 -6 -6z"/>
<path d="M3140 4566 c0 -9 30 -14 35 -6 4 6 -3 10 -14 10 -12 0 -21 -2 -21 -4z"/>
<path d="M3205 4560 c3 -5 11 -10 16 -10 6 0 7 5 4 10 -3 6 -11 10 -16 10 -6
0 -7 -4 -4 -10z"/>
<path d="M3436 4495 c-3 -8 -1 -15 4 -15 13 0 22 18 11 24 -5 3 -11 -1 -15 -9z"/>
<path d="M3525 4500 c3 -5 8 -10 11 -10 2 0 4 5 4 10 0 6 -5 10 -11 10 -5 0
-7 -4 -4 -10z"/>
<path d="M3390 4475 c0 -8 7 -15 15 -15 8 0 15 -4 15 -9 0 -5 7 -11 15 -15 11
-4 8 4 -7 24 -24 33 -38 38 -38 15z"/>
<path d="M3477 4483 c-4 -3 -7 -11 -7 -17 0 -6 5 -5 12 2 6 6 9 14 7 17 -3 3
-9 2 -12 -2z"/>
<path d="M3360 4450 c0 -5 5 -10 10 -10 6 0 10 5 10 10 0 6 -4 10 -10 10 -5 0
-10 -4 -10 -10z"/>
<path d="M3335 4431 c-3 -5 -1 -12 5 -16 5 -3 10 1 10 9 0 18 -6 21 -15 7z"/>
<path d="M1520 4378 c-11 -12 -18 -24 -15 -26 4 -5 45 36 45 45 0 8 -11 1 -30
-19z"/>
<path d="M4500 4355 c0 -8 -5 -15 -11 -15 -8 0 -10 -14 -6 -42 3 -23 2 -36 -3
-29 -13 23 -33 1 -26 -30 4 -20 2 -28 -7 -26 -7 1 -13 -11 -15 -30 -2 -18 -7
-33 -13 -33 -5 0 -9 -10 -9 -22 0 -13 -7 -31 -15 -41 -7 -11 -11 -25 -9 -31 3
-7 -2 -19 -11 -26 -8 -7 -15 -23 -15 -36 0 -12 -4 -26 -10 -29 -5 -3 -10 -19
-10 -35 0 -16 -4 -32 -10 -35 -5 -3 -10 -17 -10 -30 0 -13 -5 -25 -12 -27 -9
-3 -10 -14 -3 -42 11 -43 28 -49 33 -11 2 14 8 25 13 25 5 0 9 14 9 30 0 17 5
30 10 30 6 0 10 13 10 29 0 16 7 34 15 41 8 7 15 23 15 36 0 13 5 24 10 24 6
0 10 14 10 30 0 17 5 30 10 30 6 0 10 14 10 30 0 17 5 30 10 30 6 0 10 9 10
20 0 12 7 32 16 45 9 14 14 34 11 45 -3 13 0 20 9 20 17 0 19 41 2 58 -13 13
0 16 18 4 14 -8 64 -110 64 -129 0 -7 5 -13 10 -13 6 0 10 -13 10 -28 0 -15 5
-33 12 -40 8 -8 13 -65 15 -165 3 -124 1 -158 -11 -182 -9 -17 -16 -45 -16
-62 0 -18 -4 -33 -10 -33 -5 0 -10 -16 -10 -35 0 -19 5 -35 10 -35 6 0 10 -8
10 -17 -1 -17 -1 -17 -14 0 -17 22 -26 22 -26 -2 0 -11 -5 -23 -11 -27 -7 -4
-9 -23 -6 -48 3 -22 3 -35 0 -28 -6 17 -33 15 -33 -2 0 -8 3 -16 8 -19 4 -2 1
-2 -6 0 -8 2 -16 -6 -19 -17 -3 -11 -9 -20 -14 -20 -5 0 -9 -7 -9 -15 0 -9 -7
-18 -15 -21 -8 -4 -15 -11 -15 -16 0 -11 -39 -49 -78 -75 -13 -9 -21 -22 -18
-28 3 -9 -2 -11 -16 -7 -17 4 -19 1 -14 -19 3 -13 3 -18 0 -11 -6 13 -34 17
-34 5 0 -5 -18 -17 -40 -27 -22 -11 -40 -23 -40 -28 0 -4 -11 -8 -24 -8 -14 0
-28 -4 -31 -10 -3 -5 -17 -10 -30 -10 -13 0 -25 -5 -27 -11 -2 -5 -24 -12 -48
-15 -25 -3 -46 -10 -48 -15 -2 -5 -64 -9 -139 -9 -151 0 -131 7 -266 -94 -61
-45 -66 -52 -51 -63 22 -16 10 -17 -15 -1 -16 10 -23 7 -44 -15 -13 -15 -29
-27 -36 -27 -6 0 -11 -4 -11 -10 0 -5 -4 -10 -8 -10 -5 0 -40 -29 -78 -65 -55
-52 -66 -68 -54 -75 8 -5 11 -13 6 -17 -5 -4 -11 -2 -13 5 -7 18 -16 15 -49
-13 -16 -14 -33 -25 -37 -25 -5 0 -5 -4 -2 -10 3 -5 2 -10 -4 -10 -18 0 -114
-97 -107 -109 4 -6 2 -9 -6 -6 -8 3 -27 -9 -43 -26 -20 -21 -26 -33 -17 -36 6
-3 12 -9 12 -14 0 -5 -8 -4 -19 2 -15 10 -23 6 -54 -27 -20 -21 -37 -42 -37
-46 0 -10 27 -10 33 0 2 4 3 2 1 -3 -3 -16 23 -48 34 -41 6 3 8 -2 5 -12 -3
-12 4 -23 21 -32 14 -7 26 -19 26 -27 0 -7 7 -13 15 -13 8 0 15 -3 15 -8 0 -4
21 -29 46 -55 40 -42 48 -46 62 -35 15 12 16 11 4 -4 -12 -15 -12 -20 2 -33
10 -10 25 -14 38 -11 13 3 17 3 11 0 -7 -3 -13 -10 -13 -14 0 -14 200 -215
210 -213 5 2 6 -5 3 -14 -4 -11 -3 -14 5 -9 7 4 12 1 12 -8 0 -19 16 -21 24
-3 3 6 3 2 0 -10 -3 -13 -1 -23 5 -23 6 0 11 -7 11 -15 0 -8 6 -15 12 -15 14
0 168 -158 168 -172 0 -4 7 -8 15 -8 8 0 15 -3 15 -8 0 -11 140 -152 151 -152
5 0 9 -5 9 -11 0 -6 7 -8 16 -5 13 5 14 4 6 -7 -15 -17 20 -49 45 -41 14 5 15
4 4 -4 -7 -5 -10 -15 -6 -21 5 -9 11 -9 22 1 14 11 15 10 9 -10 -6 -18 -4 -22
13 -22 12 0 21 -4 21 -10 0 -6 29 -10 66 -10 41 0 63 -4 59 -10 -3 -5 -17 -10
-31 -10 -13 0 -24 -4 -24 -9 0 -5 -11 -12 -25 -15 -14 -4 -25 -11 -25 -16 0
-6 -5 -10 -11 -10 -6 0 -17 -7 -25 -15 -8 -8 -23 -20 -32 -27 -23 -17 -72 -84
-72 -97 0 -6 -4 -11 -8 -11 -5 0 -13 -12 -18 -27 -7 -22 -11 -24 -16 -12 -3 9
1 30 9 47 16 34 21 26 -56 97 -27 25 -34 27 -42 15 -9 -12 -10 -12 -5 3 7 21
-16 49 -36 44 -7 -2 -9 -2 -5 1 13 7 -14 31 -29 25 -8 -3 -14 1 -14 11 0 9 -7
16 -15 16 -14 0 -19 12 -16 33 0 4 -4 7 -10 7 -6 0 -38 27 -71 61 -38 39 -64
59 -74 55 -9 -3 -12 -2 -9 4 8 13 -22 43 -35 35 -6 -4 -10 -3 -9 2 3 17 -1 33
-9 33 -10 0 -85 64 -139 117 -22 23 -38 31 -50 26 -15 -6 -16 -4 -6 8 10 12 8
18 -7 32 -11 9 -22 17 -24 17 -4 0 -58 44 -88 73 -10 10 -24 15 -30 11 -6 -4
-8 -3 -4 4 3 6 -5 19 -19 30 -14 11 -25 25 -25 31 0 6 -6 11 -13 11 -7 0 -19
9 -27 20 -8 11 -20 20 -26 20 -6 0 -20 11 -30 25 -12 17 -25 23 -39 20 -11 -3
-14 -2 -7 1 19 9 14 23 -13 36 -14 6 -25 15 -25 20 0 11 -25 38 -35 38 -4 0
-16 11 -27 25 -11 14 -23 23 -27 20 -5 -2 -17 2 -27 10 -14 10 -15 14 -5 15
11 0 9 6 -7 20 -12 11 -25 20 -29 20 -5 0 -31 23 -58 50 -27 28 -55 50 -63 50
-7 0 -10 5 -7 10 3 6 1 10 -5 10 -11 0 -56 38 -127 108 -24 23 -48 42 -53 42
-6 0 -10 7 -10 15 0 19 -27 19 -46 0 -13 -12 -11 -16 13 -32 15 -10 51 -40 78
-67 28 -27 65 -60 82 -73 18 -14 30 -29 27 -34 -3 -5 3 -6 12 -2 12 4 15 3 10
-5 -4 -7 -3 -12 3 -12 6 0 33 -22 61 -50 28 -27 55 -50 61 -50 19 0 -10 -35
-130 -158 -67 -68 -121 -125 -121 -126 0 -2 -21 -25 -46 -50 -36 -37 -43 -50
-34 -61 8 -10 8 -15 -1 -21 -7 -4 -9 -3 -5 4 3 6 1 14 -5 18 -6 3 -14 2 -18
-4 -12 -19 -86 -106 -103 -121 -23 -19 -23 -31 -1 -31 14 0 15 -2 4 -12 -11
-10 -14 -10 -18 0 -6 16 -23 15 -23 -2 0 -8 -7 -16 -15 -20 -21 -8 -19 -50 4
-70 11 -10 17 -24 14 -32 -3 -8 1 -14 8 -14 7 0 10 -3 7 -6 -3 -3 3 -28 13
-57 16 -43 19 -80 19 -212 0 -97 -4 -165 -10 -171 -6 -6 -12 -26 -15 -45 -2
-18 -9 -35 -15 -37 -5 -2 -10 -13 -10 -24 0 -10 -6 -26 -14 -34 -8 -7 -12 -22
-9 -32 3 -12 -2 -22 -11 -25 -9 -4 -16 -16 -16 -27 0 -11 -3 -20 -8 -20 -4 0
-13 -12 -19 -28 -11 -23 -25 -42 -73 -99 -5 -7 -10 -15 -10 -19 0 -11 -45 -54
-57 -54 -6 0 -13 -4 -15 -8 -10 -26 -186 -132 -219 -132 -10 0 -21 -5 -24 -10
-3 -6 -17 -10 -30 -10 -19 0 -26 7 -33 32 -11 43 -32 49 -32 9 0 -17 -4 -31
-10 -31 -18 0 -10 -35 11 -48 18 -11 24 -11 38 2 10 9 29 16 44 16 14 0 29 4
32 10 3 5 17 10 31 10 13 0 24 5 24 10 0 6 11 10 25 10 14 0 25 4 25 9 0 5 8
11 18 15 17 5 52 26 62 36 3 3 21 17 40 31 59 44 140 129 177 185 20 30 40 54
44 54 5 0 9 9 9 20 0 11 5 20 10 20 6 0 10 8 10 18 0 10 10 38 22 63 27 57 38
96 50 194 14 104 14 164 0 250 -6 39 -14 88 -18 110 -4 22 -13 44 -20 48 -8 4
-14 17 -14 27 0 22 -10 26 -25 11 -6 -6 -11 2 -12 22 0 18 1 26 4 20 6 -15 33
-17 33 -3 0 6 7 10 15 10 8 0 15 4 15 8 0 5 8 17 18 28 9 11 44 51 77 89 33
39 90 101 127 138 38 37 68 70 68 71 0 2 12 17 28 34 15 16 58 63 96 104 l69
74 76 -75 c42 -42 103 -98 136 -126 33 -27 75 -64 93 -82 18 -18 35 -33 37
-33 2 0 24 -20 48 -45 25 -25 47 -45 50 -45 5 0 71 -59 159 -143 34 -32 76
-70 94 -84 18 -14 55 -46 82 -71 27 -26 73 -67 102 -92 30 -25 82 -72 116
-105 34 -33 74 -70 89 -82 26 -20 27 -24 21 -90 -3 -37 -8 -85 -12 -106 -4
-24 -2 -37 5 -37 6 0 11 -11 11 -25 0 -14 5 -25 10 -25 6 0 10 -6 10 -13 0
-17 61 -74 118 -112 23 -15 42 -31 42 -34 0 -4 16 -13 35 -21 19 -8 35 -16 35
-19 0 -3 18 -15 40 -25 22 -11 40 -23 40 -28 0 -4 9 -8 20 -8 11 0 20 -4 20
-10 0 -5 9 -10 20 -10 11 0 20 -4 20 -10 0 -5 6 -10 13 -10 7 0 24 -11 39 -25
15 -14 34 -25 43 -25 8 0 15 -4 15 -9 0 -23 33 -19 58 8 197 208 289 301 301
301 9 0 4 10 -13 26 -14 15 -26 31 -26 35 0 8 -27 43 -57 75 -7 7 -13 16 -13
20 0 4 -11 22 -25 40 -14 18 -25 37 -25 43 0 6 -4 11 -10 11 -5 0 -10 8 -10
18 0 10 -9 24 -20 32 -11 8 -20 18 -20 23 0 4 -5 13 -10 20 -44 52 -60 73 -60
80 0 4 -7 7 -15 7 -8 0 -15 4 -15 9 0 12 -47 61 -60 61 -5 0 -10 5 -10 10 0 6
-11 10 -25 10 -14 0 -25 5 -25 10 0 6 -36 10 -89 10 -50 0 -91 4 -93 10 -1 5
-16 11 -33 12 -23 2 -52 25 -130 104 -193 195 -500 515 -503 524 -5 13 -32 13
-32 0 0 -5 -5 -10 -11 -10 -8 0 -8 5 1 15 10 12 10 18 -1 32 -35 43 -360 363
-368 363 -6 0 -15 9 -21 20 -12 22 -1 27 18 8 8 -8 21 -2 50 28 22 21 72 68
112 104 41 36 95 86 121 113 26 26 50 47 54 47 4 0 12 6 19 13 7 6 39 35 71
62 32 28 67 58 77 68 10 9 20 17 23 17 5 0 39 26 66 52 9 9 20 14 23 11 3 -3
8 2 12 11 3 9 12 16 20 16 8 0 14 5 14 10 0 6 5 10 11 10 6 0 17 6 24 13 8 6
21 18 29 25 10 8 50 12 115 12 56 0 103 4 106 10 3 6 30 10 60 10 30 0 57 5
60 10 3 6 20 10 36 10 17 0 32 6 35 14 3 8 11 13 19 10 7 -3 19 2 28 10 9 9
25 16 36 16 12 0 21 3 21 8 0 4 18 15 40 25 22 9 40 20 40 25 0 4 15 16 33 27
60 35 217 212 217 245 0 6 5 10 10 10 6 0 10 9 10 20 0 11 5 20 10 20 6 0 10
6 10 13 0 13 19 59 41 99 5 10 9 31 9 47 0 17 5 33 10 36 6 4 10 72 10 170 0
98 -4 166 -10 170 -5 3 -10 24 -10 45 0 21 -4 42 -10 45 -5 3 -10 14 -10 23 0
19 -59 139 -92 189 -24 34 -48 44 -48 18z m130 -730 c0 -8 -2 -15 -4 -15 -2 0
-6 7 -10 15 -3 8 -1 15 4 15 6 0 10 -7 10 -15z m-503 -521 c-3 -3 -12 -4 -19
-1 -8 3 -5 6 6 6 11 1 17 -2 13 -5z m-74 -21 c-7 -2 -19 -2 -25 0 -7 3 -2 5
12 5 14 0 19 -2 13 -5z m-184 -17 c-9 -8 -99 -13 -99 -5 0 5 23 9 52 9 28 0
49 -2 47 -4z m-189 -44 c0 -13 -12 -22 -22 -16 -10 6 -1 24 13 24 5 0 9 -4 9
-8z m-160 -122 c0 -5 -2 -10 -4 -10 -3 0 -8 5 -11 10 -3 6 -1 10 4 10 6 0 11
-4 11 -10z m-20 -20 c0 -5 -7 -10 -16 -10 -8 0 -12 5 -9 10 3 6 10 10 16 10 5
0 9 -4 9 -10z m-35 -20 c3 -5 -1 -10 -10 -10 -9 0 -13 5 -10 10 3 6 8 10 10
10 2 0 7 -4 10 -10z m-35 -24 c0 -1 -11 -15 -25 -30 -25 -27 -45 -34 -45 -16
0 6 7 10 15 10 8 0 20 9 27 20 11 17 28 27 28 16z m-145 -136 c3 -5 1 -10 -4
-10 -6 0 -11 5 -11 10 0 6 2 10 4 10 3 0 8 -4 11 -10z m-44 -38 c-13 -24 -40
-46 -47 -39 -6 6 36 54 49 56 4 1 3 -7 -2 -17z m-61 -56 c0 -3 -4 -8 -10 -11
-5 -3 -10 -1 -10 4 0 6 5 11 10 11 6 0 10 -2 10 -4z m-110 -110 c0 -3 -4 -8
-10 -11 -5 -3 -10 -1 -10 4 0 6 5 11 10 11 6 0 10 -2 10 -4z m60 -256 c0 -5
-4 -10 -10 -10 -5 0 -10 5 -10 10 0 6 5 10 10 10 6 0 10 -4 10 -10z m-440
-116 c-18 -21 -24 -10 -9 18 8 14 14 18 17 10 2 -7 -2 -19 -8 -28z m-55 -64
c3 -5 -1 -10 -10 -10 -9 0 -13 5 -10 10 3 6 8 10 10 10 2 0 7 -4 10 -10z m675
0 c0 -5 -5 -10 -11 -10 -5 0 -7 5 -4 10 3 6 8 10 11 10 2 0 4 -4 4 -10z m-794
-127 c-10 -10 -19 5 -10 18 6 11 8 11 12 0 2 -7 1 -15 -2 -18z m-36 -33 c0 -5
-5 -10 -11 -10 -5 0 -7 5 -4 10 3 6 8 10 11 10 2 0 4 -4 4 -10z m-48 -47 c-26
-37 -71 -78 -77 -71 -6 5 75 95 88 97 5 0 -1 -11 -11 -26z m-112 -133 c0 -5
-4 -10 -10 -10 -5 0 -10 5 -10 10 0 6 5 10 10 10 6 0 10 -4 10 -10z m-50 -50
c0 -16 -33 -50 -49 -50 -11 0 -8 5 7 16 12 8 22 22 22 30 0 8 5 14 10 14 6 0
10 -4 10 -10z m1230 -220 c0 -5 -4 -10 -10 -10 -5 0 -10 5 -10 10 0 6 5 10 10
10 6 0 10 -4 10 -10z m750 -160 c0 -5 6 -10 13 -10 22 0 147 -128 147 -151 0
-6 9 -8 22 -3 20 6 21 5 10 -8 -10 -12 -8 -20 13 -42 14 -15 25 -31 25 -37 0
-5 5 -9 10 -9 6 0 10 -6 10 -12 0 -7 13 -27 28 -45 54 -62 62 -73 62 -86 0 -7
14 -23 30 -37 17 -14 30 -27 30 -31 0 -3 -42 -49 -92 -101 -51 -52 -119 -122
-150 -155 -47 -50 -59 -58 -70 -46 -32 32 -88 78 -98 81 -6 1 -21 11 -33 22
-11 11 -27 20 -34 20 -7 0 -13 5 -13 10 0 6 -7 10 -15 10 -8 0 -15 5 -15 10 0
6 -6 10 -14 10 -7 0 -19 7 -26 15 -7 8 -16 13 -20 10 -4 -3 -10 2 -14 10 -3 8
-12 15 -21 15 -8 0 -15 5 -15 10 0 6 -7 10 -15 10 -8 0 -38 25 -67 55 -70 72
-78 82 -78 96 0 6 -6 9 -14 6 -11 -4 -12 1 -4 31 5 20 12 52 15 70 3 19 12 36
19 39 8 3 14 16 14 29 0 13 5 24 10 24 6 0 10 7 10 14 0 18 98 116 116 116 7
0 14 5 16 10 2 6 13 12 26 13 12 0 22 5 22 9 0 4 13 8 29 8 16 0 44 7 62 15
40 17 69 19 69 5z"/>
<path d="M4160 1238 c0 -5 11 -8 25 -8 14 0 25 3 25 8 0 4 -11 7 -25 7 -14 0
-25 -3 -25 -7z"/>
<path d="M4243 1235 c-21 -24 -14 -40 7 -17 11 12 20 24 20 27 0 10 -15 4 -27
-10z"/>
<path d="M4137 1227 c-3 -9 1 -18 9 -21 16 -6 18 2 5 22 -7 11 -9 11 -14 -1z"/>
<path d="M4065 1210 c4 -6 11 -8 16 -5 14 9 11 15 -7 15 -8 0 -12 -5 -9 -10z"/>
<path d="M4274 1213 c10 -11 36 -12 36 -2 0 5 -10 9 -22 9 -12 0 -18 -3 -14
-7z"/>
<path d="M4180 1200 c-13 -8 -12 -10 3 -10 9 0 17 5 17 10 0 12 -1 12 -20 0z"/>
<path d="M4020 1190 c0 -13 11 -13 30 0 12 8 11 10 -7 10 -13 0 -23 -4 -23
-10z"/>
<path d="M4100 1185 c-24 -13 -24 -14 -5 -21 11 -4 23 -12 26 -17 9 -13 62 1
53 14 -4 7 -10 7 -16 1 -13 -13 -38 -4 -38 13 0 7 6 16 13 18 6 3 8 6 2 6 -5
0 -21 -6 -35 -14z"/>
<path d="M3980 1170 c0 -5 5 -10 10 -10 6 0 10 5 10 10 0 6 -4 10 -10 10 -5 0
-10 -4 -10 -10z"/>
<path d="M4290 1165 c-16 -19 -1 -19 24 0 16 12 17 15 4 15 -8 0 -21 -7 -28
-15z"/>
<path d="M4050 1149 c0 -24 23 -40 40 -29 13 8 12 10 -2 10 -9 0 -22 8 -27 18
-9 15 -10 15 -11 1z"/>
<path d="M3960 1129 c0 -5 5 -7 10 -4 6 3 10 8 10 11 0 2 -4 4 -10 4 -5 0 -10
-5 -10 -11z"/>
<path d="M4330 1130 c-8 -5 -12 -12 -9 -15 4 -3 12 1 19 10 14 17 11 19 -10 5z"/>
<path d="M3950 1080 c0 -5 5 -10 10 -10 6 0 10 5 10 10 0 6 -4 10 -10 10 -5 0
-10 -4 -10 -10z"/>
<path d="M3927 1045 c3 -8 9 -12 14 -9 12 7 11 11 -5 17 -10 4 -13 1 -9 -8z"/>
<path d="M4412 1048 c2 -6 10 -14 16 -16 7 -2 10 2 6 12 -7 18 -28 22 -22 4z"/>
<path d="M4450 1000 c0 -5 5 -10 10 -10 6 0 10 5 10 10 0 6 -4 10 -10 10 -5 0
-10 -4 -10 -10z"/>
<path d="M3930 976 c0 -9 5 -16 10 -16 6 0 10 4 10 9 0 6 -4 13 -10 16 -5 3
-10 -1 -10 -9z"/>
<path d="M4420 975 c-10 -12 -10 -15 4 -15 9 0 16 7 16 15 0 8 -2 15 -4 15 -2
0 -9 -7 -16 -15z"/>
<path d="M4473 955 c-7 -8 -9 -16 -4 -19 5 -3 12 1 15 10 8 22 4 25 -11 9z"/>
<path d="M3950 935 c0 -8 5 -15 10 -15 6 0 10 7 10 15 0 8 -4 15 -10 15 -5 0
-10 -7 -10 -15z"/>
<path d="M3986 903 c-4 -9 -3 -20 2 -25 4 -4 9 4 10 17 2 29 -3 32 -12 8z"/>
<path d="M3900 898 c0 -4 5 -8 10 -8 6 0 22 -12 35 -27 20 -23 24 -25 25 -10
0 9 -4 17 -9 17 -5 0 -12 9 -16 19 -6 19 -45 26 -45 9z"/>
<path d="M4585 830 c-3 -5 -1 -10 4 -10 6 0 11 5 11 10 0 6 -2 10 -4 10 -3 0
-8 -4 -11 -10z"/>
<path d="M4365 750 c-3 -5 -1 -10 4 -10 6 0 11 5 11 10 0 6 -2 10 -4 10 -3 0
-8 -4 -11 -10z"/>
<path d="M4080 746 c0 -2 7 -6 15 -10 8 -3 15 -1 15 4 0 6 -7 10 -15 10 -8 0
-15 -2 -15 -4z"/>
<path d="M4230 746 c0 -17 32 -45 46 -39 21 8 17 25 -5 18 -13 -4 -23 0 -30
12 -6 10 -11 14 -11 9z"/>
<path d="M4276 662 c-4 -7 -3 -19 2 -28 12 -21 22 -5 12 20 -4 13 -9 16 -14 8z"/>
<path d="M4430 650 c0 -5 5 -10 10 -10 6 0 10 5 10 10 0 6 -4 10 -10 10 -5 0
-10 -4 -10 -10z"/>
<path d="M3256 4341 c-3 -5 1 -11 9 -14 9 -4 12 -1 8 9 -6 16 -10 17 -17 5z"/>
<path d="M3462 4320 c0 -14 2 -19 5 -12 2 6 2 18 0 25 -3 6 -5 1 -5 -13z"/>
<path d="M3225 4300 c-4 -6 -3 -16 3 -22 6 -6 12 -6 17 2 4 6 3 16 -3 22 -6 6
-12 6 -17 -2z"/>
<path d="M3595 4261 c-3 -5 -1 -12 5 -16 5 -3 10 1 10 9 0 18 -6 21 -15 7z"/>
<path d="M3170 4220 c0 -5 5 -10 10 -10 6 0 10 5 10 10 0 6 -4 10 -10 10 -5 0
-10 -4 -10 -10z"/>
<path d="M3212 4195 c0 -16 2 -22 5 -12 2 9 2 23 0 30 -3 6 -5 -1 -5 -18z"/>
<path d="M3281 4194 c0 -11 3 -14 6 -6 3 7 2 16 -1 19 -3 4 -6 -2 -5 -13z"/>
<path d="M3407 4203 c-4 -3 -7 -11 -7 -17 0 -6 5 -5 12 2 6 6 9 14 7 17 -3 3
-9 2 -12 -2z"/>
<path d="M4530 4201 c0 -5 5 -13 10 -16 6 -3 10 -2 10 4 0 5 -4 13 -10 16 -5
3 -10 2 -10 -4z"/>
<path d="M4671 4174 c0 -11 3 -14 6 -6 3 7 2 16 -1 19 -3 4 -6 -2 -5 -13z"/>
<path d="M3159 4168 c-6 -25 -6 -38 1 -38 12 0 20 29 10 35 -6 4 -10 5 -11 3z"/>
<path d="M3260 4160 c-8 -5 -12 -12 -9 -15 4 -3 12 1 19 10 14 17 11 19 -10 5z"/>
<path d="M4360 4129 c0 -5 5 -7 10 -4 6 3 10 8 10 11 0 2 -4 4 -10 4 -5 0 -10
-5 -10 -11z"/>
<path d="M3121 4084 c0 -11 3 -14 6 -6 3 7 2 16 -1 19 -3 4 -6 -2 -5 -13z"/>
<path d="M3180 4090 c0 -5 5 -10 10 -10 6 0 10 5 10 10 0 6 -4 10 -10 10 -5 0
-10 -4 -10 -10z"/>
<path d="M4572 4075 c0 -16 2 -22 5 -12 2 9 2 23 0 30 -3 6 -5 -1 -5 -18z"/>
<path d="M1750 4071 c0 -6 4 -13 10 -16 6 -3 7 1 4 9 -7 18 -14 21 -14 7z"/>
<path d="M2935 4070 c3 -5 8 -10 11 -10 2 0 4 5 4 10 0 6 -5 10 -11 10 -5 0
-7 -4 -4 -10z"/>
<path d="M3140 4040 c0 -5 5 -10 10 -10 6 0 10 5 10 10 0 6 -4 10 -10 10 -5 0
-10 -4 -10 -10z"/>
<path d="M3365 4021 c-3 -5 -1 -12 5 -16 5 -3 10 1 10 9 0 18 -6 21 -15 7z"/>
<path d="M3570 4009 c0 -5 5 -7 10 -4 6 3 10 8 10 11 0 2 -4 4 -10 4 -5 0 -10
-5 -10 -11z"/>
<path d="M4305 4010 c-3 -5 -1 -10 4 -10 6 0 11 5 11 10 0 6 -2 10 -4 10 -3 0
-8 -4 -11 -10z"/>
<path d="M4488 4013 c6 -2 18 -2 25 0 6 3 1 5 -13 5 -14 0 -19 -2 -12 -5z"/>
<path d="M3521 3994 c0 -11 3 -14 6 -6 3 7 2 16 -1 19 -3 4 -6 -2 -5 -13z"/>
<path d="M3610 3964 c0 -9 5 -14 12 -12 18 6 21 28 4 28 -9 0 -16 -7 -16 -16z"/>
<path d="M4601 3943 c-1 -6 -4 -20 -7 -30 -5 -17 -5 -17 6 0 6 10 9 23 6 30
-3 9 -5 9 -5 0z"/>
<path d="M3400 3862 c0 -5 7 -16 16 -23 14 -12 16 -11 13 5 -4 20 -29 35 -29
18z"/>
<path d="M4425 3860 c-3 -5 1 -10 9 -10 9 0 16 5 16 10 0 6 -4 10 -9 10 -6 0
-13 -4 -16 -10z"/>
<path d="M3718 3833 c7 -3 16 -2 19 1 4 3 -2 6 -13 5 -11 0 -14 -3 -6 -6z"/>
<path d="M4205 3810 c3 -5 8 -10 11 -10 2 0 4 5 4 10 0 6 -5 10 -11 10 -5 0
-7 -4 -4 -10z"/>
<path d="M3472 3791 c2 -7 7 -12 11 -12 12 1 9 15 -3 20 -7 2 -11 -2 -8 -8z"/>
<path d="M3406 3761 c-23 -25 -20 -32 27 -69 23 -19 100 -86 170 -149 126
-114 129 -116 148 -97 18 19 17 20 -73 99 -133 116 -188 166 -224 202 -30 31
-32 31 -48 14z m39 -39 c-3 -3 -11 0 -18 7 -9 10 -8 11 6 5 10 -3 15 -9 12
-12z m36 -29 c13 -16 12 -17 -3 -4 -10 7 -18 15 -18 17 0 8 8 3 21 -13z m37
-38 c-3 -3 -9 2 -12 12 -6 14 -5 15 5 6 7 -7 10 -15 7 -18z m77 -63 c-3 -3
-11 0 -18 7 -9 10 -8 11 6 5 10 -3 15 -9 12 -12z m50 -50 c-3 -3 -16 5 -28 17
l-22 23 28 -17 c15 -10 25 -20 22 -23z"/>
<path d="M3510 3760 c0 -5 5 -10 11 -10 5 0 7 5 4 10 -3 6 -8 10 -11 10 -2 0
-4 -4 -4 -10z"/>
<path d="M3918 3743 c7 -3 16 -2 19 1 4 3 -2 6 -13 5 -11 0 -14 -3 -6 -6z"/>
<path d="M4120 3746 c0 -2 11 -6 25 -8 13 -3 22 -1 19 3 -5 9 -44 13 -44 5z"/>
<path d="M3595 3720 c4 -6 11 -8 16 -5 14 9 11 15 -7 15 -8 0 -12 -5 -9 -10z"/>
<path d="M481 3703 c7 -12 15 -20 18 -17 3 2 -3 12 -13 22 -17 16 -18 16 -5
-5z"/>
<path d="M3630 3710 c-8 -5 -10 -10 -5 -10 6 0 17 5 25 10 8 5 11 10 5 10 -5
0 -17 -5 -25 -10z"/>
<path d="M4300 3666 c0 -16 18 -31 27 -22 3 3 -2 12 -11 21 -14 14 -16 14 -16
1z"/>
<path d="M3367 3663 c-8 -7 11 -33 24 -33 5 0 9 5 9 10 0 6 -6 9 -12 8 -7 -2
-12 3 -10 10 2 13 -1 15 -11 5z"/>
<path d="M3671 3654 c0 -11 3 -14 6 -6 3 7 2 16 -1 19 -3 4 -6 -2 -5 -13z"/>
<path d="M3628 3653 c7 -3 16 -2 19 1 4 3 -2 6 -13 5 -11 0 -14 -3 -6 -6z"/>
<path d="M1980 3630 c0 -5 5 -10 11 -10 5 0 7 5 4 10 -3 6 -8 10 -11 10 -2 0
-4 -4 -4 -10z"/>
<path d="M3446 3632 c-3 -5 1 -15 8 -21 11 -10 14 -9 12 3 -3 21 -13 29 -20
18z"/>
<path d="M2143 3616 c-10 -11 -9 -15 2 -20 10 -4 15 1 15 14 0 23 -1 24 -17 6z"/>
<path d="M3858 3623 c7 -3 16 -2 19 1 4 3 -2 6 -13 5 -11 0 -14 -3 -6 -6z"/>
<path d="M2070 3604 c0 -8 5 -12 10 -9 6 3 10 10 10 16 0 5 -4 9 -10 9 -5 0
-10 -7 -10 -16z"/>
<path d="M3792 3613 c34 -4 37 -7 41 -41 l4 -37 1 43 2 42 -42 -2 -43 -1 37
-4z"/>
<path d="M4236 3595 c-25 -19 -17 -19 25 0 24 10 28 14 14 14 -11 0 -29 -6
-39 -14z"/>
<path d="M3746 3587 c3 -10 9 -15 12 -12 3 3 0 11 -7 18 -10 9 -11 8 -5 -6z"/>
<path d="M4320 3579 c0 -5 5 -7 10 -4 6 3 10 8 10 11 0 2 -4 4 -10 4 -5 0 -10
-5 -10 -11z"/>
<path d="M705 3560 c3 -5 8 -10 11 -10 2 0 4 5 4 10 0 6 -5 10 -11 10 -5 0 -7
-4 -4 -10z"/>
<path d="M3545 3550 c10 -11 20 -20 23 -20 3 0 -3 9 -13 20 -10 11 -20 20 -23
20 -3 0 3 -9 13 -20z"/>
<path d="M3984 3555 c26 -20 42 -19 22 0 -8 8 -21 15 -28 15 -8 -1 -6 -6 6
-15z"/>
<path d="M4180 3560 c0 -5 7 -10 15 -10 8 0 15 5 15 10 0 6 -7 10 -15 10 -8 0
-15 -4 -15 -10z"/>
<path d="M4692 3540 c0 -14 2 -19 5 -12 2 6 2 18 0 25 -3 6 -5 1 -5 -13z"/>
<path d="M3920 3540 c0 -5 7 -10 16 -10 8 0 12 5 9 10 -3 6 -10 10 -16 10 -5
0 -9 -4 -9 -10z"/>
<path d="M4250 3540 c-9 -6 -10 -10 -3 -10 6 0 15 5 18 10 8 12 4 12 -15 0z"/>
<path d="M3218 3523 c7 -3 16 -2 19 1 4 3 -2 6 -13 5 -11 0 -14 -3 -6 -6z"/>
<path d="M3393 3510 c-95 -44 -131 -146 -78 -224 36 -53 74 -83 120 -95 50
-12 80 -6 124 27 87 65 86 183 -4 256 -57 47 -111 59 -162 36z m27 -14 c0 -2
-9 -6 -20 -9 -11 -3 -18 -1 -14 4 5 9 34 13 34 5z m80 -11 c7 -9 15 -13 18
-11 2 3 13 1 24 -5 11 -6 17 -13 14 -17 -4 -3 4 -17 16 -31 l23 -26 -30 26
c-17 14 -45 37 -63 52 -19 15 -29 27 -24 27 5 0 15 -7 22 -15z m31 -64 c34
-34 49 -56 49 -75 0 -70 -66 -124 -131 -106 -94 26 -139 133 -83 199 22 26 33
31 71 31 41 0 51 -5 94 -49z m75 -57 c1 -9 0 -13 -4 -10 -3 4 -7 14 -8 22 -1
9 0 13 4 10 3 -4 7 -14 8 -22z m-276 -45 c0 -6 -4 -7 -10 -4 -5 3 -10 11 -10
16 0 6 5 7 10 4 6 -3 10 -11 10 -16z m86 -88 c22 -11 33 -20 26 -21 -21 0 -90
48 -102 72 -10 20 -8 20 13 -4 14 -14 42 -35 63 -47z m74 -27 c0 -2 -7 -4 -15
-4 -8 0 -15 4 -15 10 0 5 7 7 15 4 8 -4 15 -8 15 -10z"/>
<path d="M3524 3386 c1 -8 5 -18 8 -22 4 -3 5 1 4 10 -1 8 -5 18 -8 22 -4 3
-5 -1 -4 -10z"/>
<path d="M3400 3303 c0 -14 26 -24 45 -17 8 4 22 1 30 -6 12 -10 15 -9 15 5 0
14 -6 17 -34 12 -19 -3 -39 0 -45 6 -8 8 -11 8 -11 0z"/>
<path d="M4310 3520 c-13 -8 -12 -10 3 -10 9 0 17 5 17 10 0 12 -1 12 -20 0z"/>
<path d="M3836 3511 c-3 -4 6 -6 19 -3 14 2 25 6 25 8 0 8 -39 4 -44 -5z"/>
<path d="M3918 3493 c6 -2 18 -2 25 0 6 3 1 5 -13 5 -14 0 -19 -2 -12 -5z"/>
<path d="M3610 3486 c0 -2 7 -7 16 -10 8 -3 12 -2 9 4 -6 10 -25 14 -25 6z"/>
<path d="M3812 3460 c0 -14 2 -19 5 -12 2 6 2 18 0 25 -3 6 -5 1 -5 -13z"/>
<path d="M4430 3466 c0 -8 5 -18 10 -21 6 -3 10 1 10 9 0 8 -4 18 -10 21 -5 3
-10 -1 -10 -9z"/>
<path d="M4385 3450 c-3 -5 1 -10 10 -10 9 0 13 5 10 10 -3 6 -8 10 -10 10 -2
0 -7 -4 -10 -10z"/>
<path d="M3052 3420 c-6 -11 -8 -21 -3 -25 5 -3 13 4 16 16 9 28 2 33 -13 9z"/>
<path d="M4422 3420 c0 -14 2 -19 5 -12 2 6 2 18 0 25 -3 6 -5 1 -5 -13z"/>
<path d="M2958 3389 c-10 -5 -18 -15 -18 -21 0 -6 -8 -17 -17 -24 -13 -10 -14
-13 -4 -14 14 0 61 48 61 63 0 9 -1 9 -22 -4z"/>
<path d="M4390 3386 c0 -9 5 -16 10 -16 6 0 10 4 10 9 0 6 -4 13 -10 16 -5 3
-10 -1 -10 -9z"/>
<path d="M3070 3351 c0 -6 4 -12 8 -15 5 -3 9 1 9 9 0 8 -4 15 -9 15 -4 0 -8
-4 -8 -9z"/>
<path d="M4360 3344 c0 -8 5 -12 10 -9 6 3 10 10 10 16 0 5 -4 9 -10 9 -5 0
-10 -7 -10 -16z"/>
<path d="M4565 3310 c3 -5 10 -10 16 -10 5 0 9 5 9 10 0 6 -7 10 -16 10 -8 0
-12 -4 -9 -10z"/>
<path d="M4205 3290 c-3 -5 1 -10 10 -10 9 0 13 5 10 10 -3 6 -8 10 -10 10 -2
0 -7 -4 -10 -10z"/>
<path d="M4531 3284 c0 -11 3 -14 6 -6 3 7 2 16 -1 19 -3 4 -6 -2 -5 -13z"/>
<path d="M2601 3264 c0 -11 3 -14 6 -6 3 7 2 16 -1 19 -3 4 -6 -2 -5 -13z"/>
<path d="M4270 3270 c0 -5 5 -10 10 -10 6 0 10 5 10 10 0 6 -4 10 -10 10 -5 0
-10 -4 -10 -10z"/>
<path d="M2858 3263 c7 -3 16 -2 19 1 4 3 -2 6 -13 5 -11 0 -14 -3 -6 -6z"/>
<path d="M3095 3262 c4 -8 -1 -23 -11 -35 -18 -22 -18 -22 6 0 20 19 22 25 11
35 -11 11 -13 10 -6 0z"/>
<path d="M4168 3263 c7 -3 16 -2 19 1 4 3 -2 6 -13 5 -11 0 -14 -3 -6 -6z"/>
<path d="M3287 3243 c3 -7 6 -13 8 -13 2 0 5 6 8 13 3 8 -1 14 -8 14 -7 0 -11
-6 -8 -14z"/>
<path d="M3162 3239 c-58 -12 -122 -93 -122 -154 0 -93 111 -190 204 -178 51
7 122 75 131 126 21 110 -103 230 -213 206z m43 -18 c-12 -10 -65 -24 -65 -16
0 2 15 9 33 14 43 12 42 12 32 2z m45 -11 c13 -8 13 -10 -2 -10 -9 0 -20 5
-23 10 -8 13 5 13 25 0z m38 -74 c47 -50 55 -93 26 -135 -44 -62 -119 -58
-186 10 -31 30 -38 45 -38 76 0 46 22 81 63 98 44 18 84 3 135 -49z m31 23
l23 -31 -31 23 c-30 22 -40 39 -23 39 5 0 19 -14 31 -31z m-194 -170 c24 -24
57 -47 72 -50 l28 -7 -26 -1 c-15 0 -32 6 -39 14 -7 8 -18 15 -26 15 -7 0 -16
9 -19 20 -4 11 -10 18 -15 15 -13 -8 -29 26 -34 76 l-6 44 11 -41 c6 -27 25
-56 54 -85z m165 -44 c-7 -9 -15 -13 -19 -10 -3 3 1 10 9 15 21 14 24 12 10
-5z"/>
<path d="M3196 3142 c-3 -4 4 -9 15 -9 23 -2 25 3 4 10 -8 4 -16 3 -19 -1z"/>
<path d="M3165 3010 c10 -11 20 -20 23 -20 3 0 -3 9 -13 20 -10 11 -20 20 -23
20 -3 0 3 -9 13 -20z"/>
<path d="M3248 3018 c5 -5 16 -8 23 -6 8 3 3 7 -10 11 -17 4 -21 3 -13 -5z"/>
<path d="M4108 3243 c6 -2 18 -2 25 0 6 3 1 5 -13 5 -14 0 -19 -2 -12 -5z"/>
<path d="M4200 3241 c0 -5 -8 -11 -17 -13 -10 -2 -13 -6 -8 -10 6 -3 21 2 34
13 18 14 19 19 7 19 -9 0 -16 -4 -16 -9z"/>
<path d="M2567 3209 c-4 -16 -3 -18 9 -8 16 13 19 29 5 29 -5 0 -11 -9 -14
-21z"/>
<path d="M2820 3219 c0 -5 5 -7 10 -4 6 3 10 8 10 11 0 2 -4 4 -10 4 -5 0 -10
-5 -10 -11z"/>
<path d="M4455 3220 c3 -5 11 -10 16 -10 6 0 7 5 4 10 -3 6 -11 10 -16 10 -6
0 -7 -4 -4 -10z"/>
<path d="M1230 3194 c0 -8 5 -12 10 -9 6 3 10 10 10 16 0 5 -4 9 -10 9 -5 0
-10 -7 -10 -16z"/>
<path d="M2780 3186 c0 -9 4 -16 9 -16 5 0 12 -8 14 -17 4 -17 5 -17 6 0 0 10
-6 25 -14 33 -13 14 -15 14 -15 0z"/>
<path d="M4391 3174 c0 -11 3 -14 6 -6 3 7 2 16 -1 19 -3 4 -6 -2 -5 -13z"/>
<path d="M2820 3134 c0 -15 3 -23 8 -18 4 5 10 11 13 14 4 3 1 11 -7 18 -12
11 -14 8 -14 -14z"/>
<path d="M2830 3084 c-140 -161 -134 -153 -120 -169 18 -22 24 -19 65 31 46
56 36 74 -12 19 -23 -26 -28 -29 -15 -10 11 17 34 43 51 58 17 16 31 34 32 40
0 7 4 4 7 -6 6 -15 15 -10 57 33 47 48 48 50 30 65 -11 8 -22 14 -25 14 -3 0
-34 -34 -70 -75z m71 38 c-5 -10 -18 -25 -28 -33 -12 -10 -11 -5 6 19 24 35
38 43 22 14z"/>
<path d="M4038 3153 c7 -3 16 -2 19 1 4 3 -2 6 -13 5 -11 0 -14 -3 -6 -6z"/>
<path d="M4520 3150 c0 -5 5 -10 10 -10 6 0 10 5 10 10 0 6 -4 10 -10 10 -5 0
-10 -4 -10 -10z"/>
<path d="M3390 3136 c0 -2 7 -9 15 -16 13 -11 14 -10 9 4 -5 14 -24 23 -24 12z"/>
<path d="M4340 3130 c0 -5 5 -10 11 -10 5 0 7 5 4 10 -3 6 -8 10 -11 10 -2 0
-4 -4 -4 -10z"/>
<path d="M4415 3130 c-3 -5 -1 -10 4 -10 6 0 11 5 11 10 0 6 -2 10 -4 10 -3 0
-8 -4 -11 -10z"/>
<path d="M3663 3103 c9 -2 23 -2 30 0 6 3 -1 5 -18 5 -16 0 -22 -2 -12 -5z"/>
<path d="M2924 3078 l-19 -23 23 19 c12 11 22 21 22 23 0 8 -8 2 -26 -19z"/>
<path d="M3517 3094 c-8 -8 3 -34 15 -34 6 0 6 6 -1 14 -9 11 -9 15 1 19 7 3
8 6 2 6 -6 1 -13 -2 -17 -5z"/>
<path d="M1510 3079 c0 -5 5 -7 10 -4 6 3 10 8 10 11 0 2 -4 4 -10 4 -5 0 -10
-5 -10 -11z"/>
<path d="M2660 3080 c0 -5 5 -10 10 -10 6 0 10 5 10 10 0 6 -4 10 -10 10 -5 0
-10 -4 -10 -10z"/>
<path d="M1480 3055 c-11 -13 -10 -14 4 -9 9 3 16 10 16 15 0 13 -6 11 -20 -6z"/>
<path d="M2636 3053 c-6 -14 -5 -15 5 -6 7 7 10 15 7 18 -3 3 -9 -2 -12 -12z"/>
<path d="M2690 3060 c0 -5 5 -10 11 -10 5 0 7 5 4 10 -3 6 -8 10 -11 10 -2 0
-4 -4 -4 -10z"/>
<path d="M3480 3060 c0 -5 5 -10 10 -10 6 0 10 5 10 10 0 6 -4 10 -10 10 -5 0
-10 -4 -10 -10z"/>
<path d="M3561 3057 c2 -1 13 -9 24 -17 19 -14 19 -14 6 3 -7 9 -18 17 -24 17
-6 0 -8 -1 -6 -3z"/>
<path d="M2716 3042 c-3 -5 1 -9 9 -9 8 0 12 4 9 9 -3 4 -7 8 -9 8 -2 0 -6 -4
-9 -8z"/>
<path d="M2660 3026 c0 -9 5 -16 10 -16 6 0 10 4 10 9 0 6 -4 13 -10 16 -5 3
-10 -1 -10 -9z"/>
<path d="M2846 3021 c-7 -10 18 -33 27 -26 4 3 5 2 3 -1 -2 -3 12 -21 32 -39
21 -19 31 -35 24 -35 -7 0 -15 7 -19 15 -6 17 -92 80 -98 73 -3 -2 64 -66 148
-141 l152 -136 20 20 20 20 -30 26 c-31 26 -43 37 -181 161 -85 75 -89 78 -98
63z m156 -148 c-2 -2 12 -14 30 -27 36 -24 88 -73 88 -83 0 -7 -77 58 -130
111 -45 43 -55 69 -12 30 15 -14 26 -28 24 -31z"/>
<path d="M2925 3010 c10 -11 20 -20 23 -20 3 0 -3 9 -13 20 -10 11 -20 20 -23
20 -3 0 3 -9 13 -20z"/>
<path d="M3485 3020 c-3 -5 -1 -10 4 -10 6 0 11 5 11 10 0 6 -2 10 -4 10 -3 0
-8 -4 -11 -10z"/>
<path d="M3545 3020 c3 -5 8 -10 11 -10 2 0 4 5 4 10 0 6 -5 10 -11 10 -5 0
-7 -4 -4 -10z"/>
<path d="M1535 2990 c4 -6 11 -8 16 -5 14 9 11 15 -7 15 -8 0 -12 -5 -9 -10z"/>
<path d="M2685 2990 c3 -5 8 -10 11 -10 2 0 4 5 4 10 0 6 -5 10 -11 10 -5 0
-7 -4 -4 -10z"/>
<path d="M3770 2990 c0 -5 5 -10 10 -10 6 0 10 5 10 10 0 6 -4 10 -10 10 -5 0
-10 -4 -10 -10z"/>
<path d="M1610 2979 c0 -5 5 -7 10 -4 6 3 10 8 10 11 0 2 -4 4 -10 4 -5 0 -10
-5 -10 -11z"/>
<path d="M3386 2977 c3 -10 9 -15 12 -12 3 3 0 11 -7 18 -10 9 -11 8 -5 -6z"/>
<path d="M3480 2970 c0 -5 5 -10 10 -10 6 0 10 5 10 10 0 6 -4 10 -10 10 -5 0
-10 -4 -10 -10z"/>
<path d="M3006 2951 c-3 -4 4 -17 17 -27 22 -19 22 -19 4 2 -9 11 -14 24 -10
27 3 4 4 7 0 7 -3 0 -8 -4 -11 -9z"/>
<path d="M3345 2930 c-4 -6 3 -10 14 -10 25 0 27 6 6 13 -8 4 -17 2 -20 -3z"/>
<path d="M3410 2925 c0 -8 -7 -15 -15 -15 -8 0 -15 -4 -15 -10 0 -16 27 -12
34 5 3 8 13 15 23 15 15 0 16 2 3 10 -21 14 -30 12 -30 -5z"/>
<path d="M1671 2894 c0 -11 3 -14 6 -6 3 7 2 16 -1 19 -3 4 -6 -2 -5 -13z"/>
<path d="M2682 2901 c-11 -7 -11 -9 0 -14 9 -3 15 1 15 9 0 8 -1 14 -1 14 -1
0 -7 -4 -14 -9z"/>
<path d="M3317 2896 c-4 -10 -1 -13 9 -9 17 6 19 -8 2 -25 -16 -16 3 -15 25 2
18 14 24 32 7 21 -6 -3 -13 1 -16 9 -8 20 -20 20 -27 2z"/>
<path d="M3115 2879 c-4 -6 -5 -12 -2 -15 2 -3 7 2 10 11 7 17 1 20 -8 4z"/>
<path d="M2742 2873 c-6 -2 -10 -9 -6 -14 8 -14 21 -11 21 6 0 8 -1 15 -1 14
-1 0 -7 -3 -14 -6z"/>
<path d="M3271 2844 c0 -11 3 -14 6 -6 3 7 2 16 -1 19 -3 4 -6 -2 -5 -13z"/>
<path d="M2658 2843 c6 -2 9 -10 6 -15 -4 -7 -2 -8 4 -4 18 11 14 26 -5 25
-11 0 -13 -3 -5 -6z"/>
<path d="M3295 2830 c4 -6 11 -8 16 -5 14 9 11 15 -7 15 -8 0 -12 -5 -9 -10z"/>
<path d="M2740 2826 c0 -2 8 -10 18 -17 15 -13 16 -12 3 4 -13 16 -21 21 -21
13z"/>
<path d="M3231 2814 c0 -11 3 -14 6 -6 3 7 2 16 -1 19 -3 4 -6 -2 -5 -13z"/>
<path d="M2696 2812 c5 -4 12 -11 15 -15 3 -5 9 -2 12 5 3 9 -3 14 -15 15 -11
1 -16 -1 -12 -5z"/>
<path d="M3615 2810 c-3 -5 -1 -10 4 -10 6 0 11 5 11 10 0 6 -2 10 -4 10 -3 0
-8 -4 -11 -10z"/>
<path d="M3177 2778 c-2 -7 -1 -22 3 -33 6 -16 8 -13 7 13 0 35 -2 39 -10 20z"/>
<path d="M3488 2783 c7 -3 16 -2 19 1 4 3 -2 6 -13 5 -11 0 -14 -3 -6 -6z"/>
<path d="M3590 2770 c0 -5 5 -10 11 -10 5 0 7 5 4 10 -3 6 -8 10 -11 10 -2 0
-4 -4 -4 -10z"/>
<path d="M2930 2760 c0 -5 5 -10 10 -10 6 0 10 5 10 10 0 6 -4 10 -10 10 -5 0
-10 -4 -10 -10z"/>
<path d="M3210 2739 c0 -5 5 -7 10 -4 6 3 10 8 10 11 0 2 -4 4 -10 4 -5 0 -10
-5 -10 -11z"/>
<path d="M3405 2720 c-3 -5 -1 -10 4 -10 6 0 11 5 11 10 0 6 -2 10 -4 10 -3 0
-8 -4 -11 -10z"/>
<path d="M2550 2701 c0 -6 4 -13 10 -16 6 -3 7 1 4 9 -7 18 -14 21 -14 7z"/>
<path d="M3162 2696 c7 -8 15 -12 17 -11 5 6 -10 25 -20 25 -5 0 -4 -6 3 -14z"/>
<path d="M3133 2670 c0 -26 2 -27 13 -12 7 9 9 19 6 22 -4 3 -10 9 -13 13 -3
4 -6 -6 -6 -23z"/>
<path d="M2820 2665 c7 -9 15 -13 17 -11 7 7 -7 26 -19 26 -6 0 -6 -6 2 -15z"/>
<path d="M3386 2664 c-3 -9 -11 -12 -18 -8 -10 5 -10 4 -1 -6 10 -11 15 -11
28 0 17 14 20 30 6 30 -5 0 -12 -7 -15 -16z"/>
<path d="M2520 2660 c-8 -5 -12 -11 -9 -14 2 -3 11 -1 19 4 8 5 12 11 9 14 -2
3 -11 1 -19 -4z"/>
<path d="M2600 2657 c0 -16 21 -47 33 -47 8 0 9 3 1 8 -6 4 -16 16 -22 27 -6
11 -12 16 -12 12z"/>
<path d="M2965 2630 c-3 -5 -12 -7 -19 -4 -7 3 -19 -2 -26 -11 -7 -9 -8 -15
-2 -15 6 0 12 6 14 12 3 9 9 8 22 -5 10 -9 23 -17 29 -17 7 0 4 5 -6 11 -14 8
-16 14 -6 25 6 8 9 14 6 14 -3 0 -8 -4 -12 -10z"/>
<path d="M2920 2580 c-9 -6 -10 -10 -3 -10 6 0 15 5 18 10 8 12 4 12 -15 0z"/>
<path d="M2020 2560 c0 -5 -5 -10 -10 -10 -6 0 -28 -17 -49 -37 -21 -21 -84
-81 -141 -133 -56 -52 -109 -103 -118 -112 -9 -10 -21 -18 -26 -18 -5 0 -16
-8 -25 -18 -14 -16 -132 -118 -191 -165 -12 -11 -50 -23 -84 -28 -33 -5 -70
-11 -81 -13 -11 -3 -35 -5 -52 -5 -35 -1 -45 -17 -15 -24 9 -2 -10 -2 -42 1
-50 4 -58 3 -54 -10 5 -11 1 -14 -16 -11 -12 3 -38 -5 -57 -16 -19 -12 -42
-24 -51 -27 -10 -4 -18 -10 -18 -15 0 -5 -9 -9 -20 -9 -11 0 -20 -7 -20 -15 0
-8 -6 -12 -12 -10 -16 6 -178 -149 -198 -187 -7 -16 -17 -28 -21 -28 -4 0 -20
-26 -36 -57 -15 -32 -31 -59 -35 -61 -5 -2 -8 -14 -8 -27 0 -12 -7 -28 -15
-35 -8 -7 -15 -25 -15 -41 0 -16 -4 -29 -10 -29 -6 0 -10 -27 -10 -60 0 -33
-4 -60 -10 -60 -13 0 -13 -197 0 -205 6 -3 10 -28 10 -55 0 -27 4 -52 10 -55
5 -3 10 -19 10 -34 0 -16 7 -34 15 -41 8 -7 15 -22 15 -34 0 -11 9 -32 20 -46
11 -14 20 -30 20 -35 0 -6 11 -27 25 -48 31 -44 65 -51 65 -12 0 14 5 25 10
25 6 0 10 10 10 23 0 13 7 32 15 43 8 10 15 29 15 42 0 12 5 22 10 22 6 0 10
11 10 25 0 14 5 25 10 25 6 0 10 8 10 18 0 22 33 116 43 120 4 2 7 17 7 33 0
16 5 29 10 29 6 0 10 10 10 23 0 13 11 47 25 75 14 29 25 56 25 62 0 5 5 10
10 10 6 0 10 6 10 13 0 7 10 19 21 27 12 8 27 21 35 28 7 6 20 12 28 12 9 0
16 4 16 9 0 4 36 9 80 10 51 1 80 -2 80 -8 0 -6 9 -11 20 -11 11 0 28 -4 38
-9 75 -36 93 -43 111 -38 14 3 18 1 14 -9 -4 -10 4 -14 26 -14 17 0 31 -4 31
-10 0 -5 13 -10 29 -10 16 0 31 -5 33 -11 2 -6 17 -13 32 -14 16 -2 33 -8 39
-14 6 -6 17 -11 24 -11 26 0 85 -58 108 -106 9 -19 20 -34 24 -34 13 0 7 -108
-7 -122 -6 -6 -12 -24 -12 -39 0 -15 -4 -31 -10 -34 -5 -3 -10 -17 -10 -31 0
-13 -4 -24 -10 -24 -5 0 -10 -13 -10 -30 0 -16 -4 -30 -10 -30 -5 0 -10 -12
-10 -26 0 -14 -7 -32 -15 -40 -8 -9 -15 -26 -15 -39 0 -13 -4 -27 -10 -30 -5
-3 -10 -17 -10 -31 0 -13 -4 -24 -10 -24 -5 0 -10 -11 -10 -23 0 -13 -7 -39
-16 -57 -13 -26 -14 -37 -5 -51 6 -10 11 -26 11 -35 0 -29 25 -8 28 24 2 18 7
32 13 32 5 0 9 14 9 30 0 17 5 30 10 30 6 0 10 10 10 23 0 12 7 31 15 41 8 11
15 28 15 38 0 10 5 18 10 18 6 0 10 16 10 35 0 19 5 35 10 35 6 0 10 11 10 24
0 14 5 28 10 31 6 3 10 14 10 24 0 10 7 24 16 32 11 9 14 22 10 41 -4 21 -2
28 9 28 10 0 15 11 15 34 0 19 4 46 10 60 6 17 6 26 0 26 -6 0 -10 23 -10 50
0 28 -4 50 -10 50 -5 0 -10 9 -10 21 0 37 -115 137 -145 125 -9 -3 -13 -2 -10
4 6 10 -8 13 -60 13 -16 0 -24 2 -17 4 23 9 12 23 -17 23 -16 0 -31 5 -33 11
-2 6 -20 11 -40 11 -22 0 -39 6 -42 14 -3 8 -15 14 -26 14 -11 0 -20 5 -20 10
0 6 -16 10 -35 10 -19 0 -35 4 -35 9 0 5 -11 11 -25 13 -14 3 -25 1 -25 -3 0
-5 -4 -9 -9 -9 -5 0 -8 8 -7 17 1 15 -11 17 -92 19 -72 1 -95 -2 -99 -13 -3
-8 -12 -12 -19 -9 -7 3 -20 -1 -28 -9 -8 -8 -20 -15 -26 -15 -7 0 -10 -7 -7
-14 4 -10 1 -13 -9 -9 -7 3 -14 0 -14 -6 0 -7 -9 -21 -20 -33 -10 -12 -17 -25
-14 -29 2 -4 0 -10 -6 -14 -5 -3 -10 -15 -10 -26 0 -10 -4 -19 -10 -19 -5 0
-10 -13 -10 -30 0 -16 -4 -30 -10 -30 -5 0 -10 -11 -10 -24 0 -14 -4 -27 -9
-30 -4 -3 -11 -19 -14 -35 -4 -16 -15 -49 -27 -73 -11 -24 -21 -55 -22 -70 -1
-16 -6 -28 -10 -28 -4 0 -8 -11 -8 -24 0 -13 -7 -29 -15 -36 -8 -7 -15 -23
-15 -36 0 -13 -4 -24 -10 -24 -5 0 -10 -13 -10 -30 0 -16 -3 -30 -7 -30 -11 0
-63 102 -63 123 0 9 -4 17 -10 17 -5 0 -10 10 -10 23 0 12 -6 40 -14 62 -16
47 -14 332 3 364 6 11 11 31 11 45 0 15 4 34 9 44 18 34 41 90 41 101 0 6 4
11 8 11 5 0 15 18 22 40 7 22 17 40 22 40 13 0 9 28 -4 33 -7 2 -9 8 -5 13 4
5 12 2 18 -6 8 -13 12 -12 25 5 50 66 121 144 132 144 6 1 12 6 12 11 0 6 6
10 14 10 8 0 21 6 28 13 21 19 56 37 72 37 8 0 16 3 18 8 5 11 76 42 98 42 11
0 20 5 20 10 0 6 18 10 40 10 22 0 40 5 40 10 0 6 37 10 90 10 81 0 93 3 114
23 41 40 76 67 86 67 14 0 13 13 -2 28 -8 8 -9 12 -1 12 6 0 13 -5 15 -12 7
-20 90 63 84 84 -3 15 -2 17 9 8 11 -9 22 -5 50 17 35 28 44 43 25 43 -5 0
-10 5 -10 12 0 9 3 9 12 0 7 -7 18 -12 25 -12 17 0 17 27 1 33 -7 2 -3 2 10 0
29 -5 134 93 113 106 -7 5 -10 14 -6 20 5 9 11 7 19 -5 12 -15 19 -11 75 43
45 44 60 65 55 78 -6 14 -3 16 15 10 20 -6 21 -5 9 14 -13 22 -38 29 -38 11z
m-36 -85 c-4 -8 -12 -15 -20 -15 -20 0 -17 18 4 23 9 3 18 5 19 6 1 0 0 -6 -3
-14z m-37 -31 c-3 -3 -12 -4 -19 -1 -8 3 -5 6 6 6 11 1 17 -2 13 -5z m-447
-384 c0 -5 -4 -10 -10 -10 -5 0 -10 5 -10 10 0 6 5 10 10 10 6 0 10 -4 10 -10z
m-57 -47 c-7 -2 -19 -2 -25 0 -7 3 -2 5 12 5 14 0 19 -2 13 -5z m-266 -49 c-3
-3 -12 -4 -19 -1 -8 3 -5 6 6 6 11 1 17 -2 13 -5z m-67 -20 c0 -2 -7 -4 -15
-4 -8 0 -15 4 -15 10 0 5 7 7 15 4 8 -4 15 -8 15 -10z m-43 -20 c-3 -3 -12 -4
-19 -1 -8 3 -5 6 6 6 11 1 17 -2 13 -5z m-182 -114 c3 -5 1 -10 -4 -10 -6 0
-11 5 -11 10 0 6 2 10 4 10 3 0 8 -4 11 -10z m-45 -50 c0 -5 -4 -10 -10 -10
-5 0 -10 5 -10 10 0 6 5 10 10 10 6 0 10 -4 10 -10z m-46 -55 c-4 -8 -10 -15
-15 -15 -4 0 -6 7 -3 15 4 8 10 15 15 15 4 0 6 -7 3 -15z m-77 -97 c-3 -8 -6
-5 -6 6 -1 11 2 17 5 13 3 -3 4 -12 1 -19z m-17 -44 c0 -8 -5 -12 -10 -9 -6 4
-8 11 -5 16 9 14 15 11 15 -7z m-20 -48 c0 -8 -4 -18 -10 -21 -5 -3 -10 3 -10
14 0 12 5 21 10 21 6 0 10 -6 10 -14z m-33 -48 c-3 -8 -6 -5 -6 6 -1 11 2 17
5 13 3 -3 4 -12 1 -19z m-20 -95 c-3 -10 -5 -4 -5 12 0 17 2 24 5 18 2 -7 2
-21 0 -30z m-20 -190 c-2 -21 -4 -4 -4 37 0 41 2 58 4 38 2 -21 2 -55 0 -75z
m1138 42 c14 -13 25 -27 25 -30 0 -9 -59 38 -59 48 -1 13 9 8 34 -18z m42 -57
c-3 -7 -5 -2 -5 12 0 14 2 19 5 13 2 -7 2 -19 0 -25z m20 -220 c-3 -8 -6 -5
-6 6 -1 11 2 17 5 13 3 -3 4 -12 1 -19z m-17 -60 c0 -18 -2 -20 -9 -8 -6 8 -7
18 -5 22 9 14 14 9 14 -14z m-20 -53 c0 -8 -4 -15 -10 -15 -5 0 -10 7 -10 15
0 8 5 15 10 15 6 0 10 -7 10 -15z m-53 -142 c-3 -10 -5 -4 -5 12 0 17 2 24 5
18 2 -7 2 -21 0 -30z m-20 -65 c-3 -8 -6 -5 -6 6 -1 11 2 17 5 13 3 -3 4 -12
1 -19z"/>
<path d="M2480 2535 c0 -8 4 -15 10 -15 5 0 7 7 4 15 -4 8 -8 15 -10 15 -2 0
-4 -7 -4 -15z"/>
<path d="M2415 2531 c-3 -5 -1 -12 5 -16 5 -3 10 1 10 9 0 18 -6 21 -15 7z"/>
<path d="M2940 2520 c0 -5 5 -10 11 -10 5 0 7 5 4 10 -3 6 -8 10 -11 10 -2 0
-4 -4 -4 -10z"/>
<path d="M1840 2496 c0 -9 5 -16 10 -16 6 0 10 4 10 9 0 6 -4 13 -10 16 -5 3
-10 -1 -10 -9z"/>
<path d="M2750 2496 c0 -11 60 -63 65 -57 2 5 -9 20 -25 35 -28 25 -40 31 -40
22z"/>
<path d="M3230 2490 c0 -5 5 -10 10 -10 6 0 10 5 10 10 0 6 -4 10 -10 10 -5 0
-10 -4 -10 -10z"/>
<path d="M2052 2468 c2 -6 15 -18 29 -26 21 -12 22 -12 7 1 -10 8 -18 19 -18
26 0 6 -5 11 -11 11 -6 0 -9 -5 -7 -12z"/>
<path d="M2450 2470 c0 -5 7 -10 16 -10 8 0 12 5 9 10 -3 6 -10 10 -16 10 -5
0 -9 -4 -9 -10z"/>
<path d="M3250 2440 c0 -5 5 -10 10 -10 6 0 10 5 10 10 0 6 -4 10 -10 10 -5 0
-10 -4 -10 -10z"/>
<path d="M2000 2420 c0 -5 7 -10 15 -10 8 0 15 5 15 10 0 6 -7 10 -15 10 -8 0
-15 -4 -15 -10z"/>
<path d="M2094 2397 c-41 -44 -114 -134 -114 -140 0 -3 76 -70 168 -150 l168
-145 46 57 c25 31 60 72 77 92 29 35 30 37 12 53 -17 16 -21 13 -76 -54 -31
-38 -60 -70 -64 -70 -3 0 -31 22 -61 49 l-54 48 53 62 c44 51 51 64 41 76 -7
8 -16 15 -19 15 -4 0 -29 -27 -57 -60 -27 -33 -51 -60 -54 -60 -3 0 -21 15
-40 33 -48 46 -80 63 -90 47 -5 -8 -9 -7 -13 5 -4 10 -3 14 3 10 10 -6 54 33
113 103 16 19 27 35 25 36 -2 1 -10 7 -19 14 -13 9 -21 6 -45 -21z m-9 -197
c3 -5 1 -10 -4 -10 -6 0 -11 5 -11 10 0 6 2 10 4 10 3 0 8 -4 11 -10z m45 -42
c0 -5 -7 -3 -15 6 -8 8 -15 18 -15 22 0 3 7 1 15 -6 8 -7 15 -17 15 -22z m58
-8 c-7 -11 -16 -20 -21 -20 -4 0 -5 -6 -1 -12 5 -9 2 -8 -9 1 -10 8 -15 16
-12 19 4 4 44 28 53 31 1 1 -3 -8 -10 -19z m12 -45 c11 -13 10 -14 -4 -9 -9 3
-16 10 -16 15 0 13 6 11 20 -6z m86 -77 l19 -21 -27 18 c-29 18 -34 25 -20 25
5 0 17 -10 28 -22z"/>
<path d="M3095 2420 c-3 -5 -1 -10 4 -10 6 0 11 5 11 10 0 6 -2 10 -4 10 -3 0
-8 -4 -11 -10z"/>
<path d="M2275 2400 c4 -6 11 -8 16 -5 14 9 11 15 -7 15 -8 0 -12 -5 -9 -10z"/>
<path d="M1980 2385 c0 -8 7 -15 16 -15 14 0 14 3 4 15 -7 8 -14 15 -16 15 -2
0 -4 -7 -4 -15z"/>
<path d="M3230 2380 c0 -5 5 -10 11 -10 5 0 7 5 4 10 -3 6 -8 10 -11 10 -2 0
-4 -4 -4 -10z"/>
<path d="M2590 2360 c0 -5 5 -10 10 -10 6 0 10 5 10 10 0 6 -4 10 -10 10 -5 0
-10 -4 -10 -10z"/>
<path d="M1940 2350 c0 -5 -9 -19 -20 -30 -11 -11 -15 -20 -10 -20 18 0 25 5
27 18 3 22 13 27 23 12 5 -8 7 -17 5 -20 -2 -3 5 -6 16 -6 18 0 18 2 5 12 -9
6 -16 19 -16 28 0 9 -7 16 -15 16 -8 0 -15 -4 -15 -10z"/>
<path d="M2365 2350 c-3 -5 -1 -10 4 -10 6 0 11 5 11 10 0 6 -2 10 -4 10 -3 0
-8 -4 -11 -10z"/>
<path d="M2570 2329 c0 -5 5 -7 10 -4 6 3 10 8 10 11 0 2 -4 4 -10 4 -5 0 -10
-5 -10 -11z"/>
<path d="M2620 2334 c0 -10 28 -34 39 -34 6 0 11 5 11 10 0 6 -7 10 -15 10 -8
0 -15 5 -15 10 0 6 -4 10 -10 10 -5 0 -10 -3 -10 -6z"/>
<path d="M2390 2308 c0 -4 7 -8 15 -8 8 0 15 4 15 8 0 5 -7 9 -15 9 -8 0 -15
-4 -15 -9z"/>
<path d="M3180 2310 c0 -5 5 -10 10 -10 6 0 10 5 10 10 0 6 -4 10 -10 10 -5 0
-10 -4 -10 -10z"/>
<path d="M3230 2310 c0 -5 5 -10 10 -10 6 0 10 5 10 10 0 6 -4 10 -10 10 -5 0
-10 -4 -10 -10z"/>
<path d="M2930 2300 c0 -5 5 -10 11 -10 5 0 7 5 4 10 -3 6 -8 10 -11 10 -2 0
-4 -4 -4 -10z"/>
<path d="M3205 2290 c-3 -5 -1 -10 4 -10 6 0 11 5 11 10 0 6 -2 10 -4 10 -3 0
-8 -4 -11 -10z"/>
<path d="M2422 2276 c7 -8 17 -12 22 -9 4 3 2 9 -5 14 -22 13 -31 11 -17 -5z"/>
<path d="M2965 2270 c-3 -5 1 -10 9 -10 10 0 13 -6 10 -15 -4 -8 -1 -15 5 -15
16 0 14 25 -3 39 -10 8 -16 9 -21 1z"/>
<path d="M2465 2260 c-16 -7 -14 -9 12 -7 17 0 29 5 27 9 -6 10 -13 9 -39 -2z"/>
<path d="M1831 2244 c0 -11 3 -14 6 -6 3 7 2 16 -1 19 -3 4 -6 -2 -5 -13z"/>
<path d="M2930 2243 c0 -12 28 -38 34 -32 2 2 -5 13 -15 23 -11 11 -19 15 -19
9z"/>
<path d="M3240 2236 c0 -2 9 -6 20 -9 11 -3 18 -1 14 4 -5 9 -34 13 -34 5z"/>
<path d="M2446 2222 c-3 -5 1 -9 9 -9 8 0 12 4 9 9 -3 4 -7 8 -9 8 -2 0 -6 -4
-9 -8z"/>
<path d="M2840 2200 c0 -5 5 -10 10 -10 6 0 10 5 10 10 0 6 -4 10 -10 10 -5 0
-10 -4 -10 -10z"/>
<path d="M3410 2200 c0 -5 5 -10 11 -10 5 0 7 5 4 10 -3 6 -8 10 -11 10 -2 0
-4 -4 -4 -10z"/>
<path d="M1760 2190 c0 -5 5 -10 10 -10 6 0 10 5 10 10 0 6 -4 10 -10 10 -5 0
-10 -4 -10 -10z"/>
<path d="M2870 2174 c0 -8 5 -12 10 -9 6 4 8 11 5 16 -9 14 -15 11 -15 -7z"/>
<path d="M2802 2165 c-21 -11 -21 -13 -5 -26 9 -8 14 -9 10 -2 -4 7 0 16 10
22 26 14 12 20 -15 6z"/>
<path d="M3385 2170 c3 -5 8 -10 11 -10 2 0 4 5 4 10 0 6 -5 10 -11 10 -5 0
-7 -4 -4 -10z"/>
<path d="M1466 2161 c-11 -4 -15 -10 -10 -13 5 -4 18 0 29 8 20 15 12 17 -19
5z"/>
<path d="M2319 2143 c-12 -16 -12 -17 2 -6 9 7 20 9 24 5 5 -4 5 -1 1 6 -9 16
-11 15 -27 -5z"/>
<path d="M2525 2149 c-4 -6 -5 -12 -2 -15 2 -3 7 2 10 11 7 17 1 20 -8 4z"/>
<path d="M3090 2149 c0 -5 5 -7 10 -4 6 3 10 8 10 11 0 2 -4 4 -10 4 -5 0 -10
-5 -10 -11z"/>
<path d="M1719 2133 c-13 -16 -12 -17 4 -4 9 7 17 15 17 17 0 8 -8 3 -21 -13z"/>
<path d="M1880 2125 c-27 -14 -130 -127 -130 -142 0 -5 37 -41 83 -80 45 -38
119 -102 165 -142 81 -70 84 -72 103 -55 11 10 18 21 17 25 -2 3 -31 30 -65
59 l-63 52 24 31 c39 53 56 94 56 138 0 36 -6 48 -44 85 -37 37 -49 44 -82 44
-22 -1 -50 -7 -64 -15z m95 -15 c3 -5 1 -10 -4 -10 -6 0 -11 5 -11 10 0 6 2
10 4 10 3 0 8 -4 11 -10z m-12 -31 c53 -27 71 -83 43 -137 -16 -31 -66 -80
-66 -65 0 6 -29 35 -65 64 l-64 54 37 38 c52 54 78 65 115 46z m-166 -94 c0
-8 -4 -12 -9 -9 -5 3 -6 10 -3 15 9 13 12 11 12 -6z m46 -40 c4 3 5 2 2 -2 -3
-3 1 -13 7 -22 7 -9 0 -5 -15 8 -15 14 -27 29 -27 35 0 6 7 3 14 -6 7 -10 16
-16 19 -13z m48 -52 c13 -16 12 -17 -3 -4 -10 7 -18 15 -18 17 0 8 8 3 21 -13z
m36 -28 c0 -8 -4 -12 -9 -9 -5 3 -6 10 -3 15 9 13 12 11 12 -6z m53 -16 c-12
-22 -31 -21 -39 2 -3 11 -2 12 11 1 13 -10 17 -10 22 3 3 8 8 15 11 15 3 0 1
-9 -5 -21z m7 -26 c-4 -3 -1 -13 6 -22 11 -14 10 -14 -5 -2 -16 12 -16 31 -1
31 4 0 3 -3 0 -7z m84 -90 c13 -16 12 -17 -3 -4 -17 13 -22 21 -14 21 2 0 10
-8 17 -17z"/>
<path d="M1880 2021 c0 -6 4 -13 10 -16 6 -3 7 1 4 9 -7 18 -14 21 -14 7z"/>
<path d="M1887 1979 c7 -7 15 -10 18 -7 3 3 -2 9 -12 12 -14 6 -15 5 -6 -5z"/>
<path d="M2583 2125 c-19 -21 -16 -27 7 -13 11 7 20 16 20 20 0 12 -14 9 -27
-7z"/>
<path d="M3130 2130 c-13 -8 -12 -10 3 -10 9 0 17 5 17 10 0 12 -1 12 -20 0z"/>
<path d="M3362 2131 c4 -13 18 -16 19 -4 0 4 -5 9 -11 12 -7 2 -11 -2 -8 -8z"/>
<path d="M2865 2120 c3 -5 8 -10 11 -10 2 0 4 5 4 10 0 6 -5 10 -11 10 -5 0
-7 -4 -4 -10z"/>
<path d="M2486 2084 c-18 -25 -18 -25 3 -12 12 7 21 18 21 25 0 18 -2 16 -24
-13z"/>
<path d="M3160 2094 c0 -8 5 -12 10 -9 6 3 10 10 10 16 0 5 -4 9 -10 9 -5 0
-10 -7 -10 -16z"/>
<path d="M3160 2060 c0 -5 5 -10 10 -10 6 0 10 5 10 10 0 6 -4 10 -10 10 -5 0
-10 -4 -10 -10z"/>
<path d="M2435 2039 c-4 -6 -5 -12 -2 -15 2 -3 7 2 10 11 7 17 1 20 -8 4z"/>
<path d="M2171 2016 c-10 -11 -9 -14 1 -12 14 2 23 15 15 22 -2 2 -10 -2 -16
-10z"/>
<path d="M2440 2010 l-25 -20 26 9 c15 5 30 7 34 3 3 -3 3 1 -1 11 -7 20 -4
21 -34 -3z"/>
<path d="M998 2013 c7 -3 16 -2 19 1 4 3 -2 6 -13 5 -11 0 -14 -3 -6 -6z"/>
<path d="M730 2006 c0 -2 7 -7 16 -10 8 -3 12 -2 9 4 -6 10 -25 14 -25 6z"/>
<path d="M1538 1993 c6 -2 10 -9 6 -14 -9 -15 13 -10 26 6 11 13 8 15 -16 14
-16 0 -23 -3 -16 -6z"/>
<path d="M3000 1989 c0 -5 5 -7 10 -4 6 3 10 8 10 11 0 2 -4 4 -10 4 -5 0 -10
-5 -10 -11z"/>
<path d="M2393 1974 c-3 -8 -11 -13 -18 -11 -6 3 -16 -3 -23 -13 -10 -17 -9
-17 19 -3 16 8 29 20 29 26 0 7 7 3 15 -7 10 -13 19 -16 25 -10 5 5 0 13 -16
21 -21 10 -26 9 -31 -3z"/>
<path d="M2246 1972 c-2 -4 -1 -14 3 -21 6 -10 10 -9 14 3 6 16 -8 32 -17 18z"/>
<path d="M3307 1955 c18 -24 33 -32 33 -17 0 8 -37 42 -46 42 -3 0 3 -11 13
-25z"/>
<path d="M3570 1970 c0 -5 5 -10 11 -10 5 0 7 5 4 10 -3 6 -8 10 -11 10 -2 0
-4 -4 -4 -10z"/>
<path d="M910 1950 c0 -5 5 -10 10 -10 6 0 10 5 10 10 0 6 -4 10 -10 10 -5 0
-10 -4 -10 -10z"/>
<path d="M1610 1950 c0 -5 5 -10 10 -10 6 0 10 5 10 10 0 6 -4 10 -10 10 -5 0
-10 -4 -10 -10z"/>
<path d="M1423 1943 c9 -2 23 -2 30 0 6 3 -1 5 -18 5 -16 0 -22 -2 -12 -5z"/>
<path d="M3060 1935 c7 -8 17 -15 22 -15 5 0 3 7 -6 15 -8 8 -18 15 -22 15 -3
0 -1 -7 6 -15z"/>
<path d="M3533 1943 c9 -2 17 -9 17 -14 0 -5 5 -9 11 -9 8 0 8 5 -1 15 -7 8
-20 14 -29 14 -13 -1 -13 -2 2 -6z"/>
<path d="M1693 1930 c2 -8 13 -16 25 -16 12 -1 19 3 16 8 -3 4 -10 5 -16 2 -6
-4 -15 0 -20 7 -8 12 -9 11 -5 -1z"/>
<path d="M886 1922 c-3 -5 1 -9 9 -9 8 0 12 4 9 9 -3 4 -7 8 -9 8 -2 0 -6 -4
-9 -8z"/>
<path d="M1288 1923 c6 -2 18 -2 25 0 6 3 1 5 -13 5 -14 0 -19 -2 -12 -5z"/>
<path d="M2330 1900 c-1 -14 -2 -29 -1 -34 3 -16 -22 -37 -37 -31 -12 4 -13 3
-3 -9 11 -13 15 -13 33 3 14 14 18 28 15 57 -2 27 -5 31 -7 14z"/>
<path d="M3356 1906 c5 -13 4 -17 -4 -12 -7 4 -12 1 -12 -8 0 -8 4 -17 9 -20
13 -8 22 37 10 49 -7 7 -8 4 -3 -9z"/>
<path d="M1173 1900 c-13 -5 -23 -11 -23 -12 0 -8 81 5 86 13 7 11 -34 11 -63
-1z"/>
<path d="M3561 1893 c-18 -20 -6 -29 14 -10 8 9 12 18 8 20 -5 3 -14 -2 -22
-10z"/>
<path d="M2614 1888 c3 -15 26 -23 26 -8 0 6 -4 9 -9 6 -5 -4 -12 -1 -14 4 -3
6 -4 5 -3 -2z"/>
<path d="M1597 1877 c-3 -8 1 -14 8 -14 7 0 11 6 8 14 -3 7 -6 13 -8 13 -2 0
-5 -6 -8 -13z"/>
<path d="M1647 1872 c-15 -17 -12 -22 58 -82 41 -36 75 -67 75 -70 0 -3 -32
-43 -71 -88 -51 -62 -67 -87 -60 -96 6 -7 8 -16 4 -20 -4 -3 4 -19 18 -34 13
-15 9 -13 -8 5 -18 18 -33 29 -33 25 0 -4 -5 1 -11 11 -6 9 -15 14 -21 11 -7
-4 -8 -2 -4 5 6 9 11 9 22 0 8 -6 17 -10 19 -7 4 4 -26 35 -126 125 l-26 24
-16 -24 c-16 -24 -15 -25 66 -93 45 -38 121 -104 170 -148 83 -74 89 -77 102
-60 8 11 15 22 15 25 0 3 -34 34 -75 69 l-75 62 59 69 c33 37 66 78 75 90 15
22 15 22 92 -46 l77 -69 19 24 c18 23 18 24 1 33 -10 6 -20 13 -23 16 -9 11
-299 261 -303 261 -2 0 -11 -8 -20 -18z m-87 -292 c11 -11 16 -20 12 -20 -5 0
-17 9 -27 20 -10 11 -15 20 -12 20 4 0 16 -9 27 -20z m187 -160 c14 -11 22
-20 18 -20 -4 0 -18 9 -32 20 -14 11 -22 20 -18 20 4 0 18 -9 32 -20z"/>
<path d="M2735 1880 c-3 -5 -1 -10 4 -10 6 0 11 5 11 10 0 6 -2 10 -4 10 -3 0
-8 -4 -11 -10z"/>
<path d="M1108 1873 c6 -2 18 -2 25 0 6 3 1 5 -13 5 -14 0 -19 -2 -12 -5z"/>
<path d="M820 1859 c0 -5 5 -7 10 -4 6 3 10 8 10 11 0 2 -4 4 -10 4 -5 0 -10
-5 -10 -11z"/>
<path d="M2820 1855 c0 -8 5 -15 10 -15 6 0 10 7 10 15 0 8 -4 15 -10 15 -5 0
-10 -7 -10 -15z"/>
<path d="M3300 1855 c0 -8 4 -15 10 -15 5 0 7 7 4 15 -4 8 -8 15 -10 15 -2 0
-4 -7 -4 -15z"/>
<path d="M3390 1860 c0 -5 5 -10 11 -10 5 0 7 5 4 10 -3 6 -8 10 -11 10 -2 0
-4 -4 -4 -10z"/>
<path d="M2570 1850 c0 -5 5 -10 10 -10 6 0 10 5 10 10 0 6 -4 10 -10 10 -5 0
-10 -4 -10 -10z"/>
<path d="M2640 1856 c0 -9 30 -14 35 -6 4 6 -3 10 -14 10 -12 0 -21 -2 -21 -4z"/>
<path d="M3180 1830 c0 -5 4 -10 9 -10 6 0 13 5 16 10 3 6 -1 10 -9 10 -9 0
-16 -4 -16 -10z"/>
<path d="M2221 1813 c-7 -8 -11 -16 -8 -19 2 -2 10 2 17 11 17 20 9 27 -9 8z"/>
<path d="M3230 1810 c0 -5 5 -10 10 -10 6 0 10 5 10 10 0 6 -4 10 -10 10 -5 0
-10 -4 -10 -10z"/>
<path d="M2246 1775 c-3 -8 -1 -15 4 -15 6 0 10 7 10 15 0 8 -2 15 -4 15 -2 0
-6 -7 -10 -15z"/>
<path d="M2918 1763 c6 -2 12 -11 12 -19 0 -8 7 -14 15 -14 8 0 15 3 15 6 0
10 -33 33 -45 33 -5 0 -4 -3 3 -6z"/>
<path d="M3220 1766 c0 -2 7 -9 15 -16 13 -11 14 -10 9 4 -5 14 -24 23 -24 12z"/>
<path d="M3775 1751 c-3 -5 -1 -12 5 -16 5 -3 10 1 10 9 0 18 -6 21 -15 7z"/>
<path d="M2210 1730 c-6 -11 -7 -20 -3 -20 5 0 14 9 21 20 7 11 8 20 2 20 -5
0 -14 -9 -20 -20z"/>
<path d="M2440 1740 c0 -5 5 -10 10 -10 6 0 10 5 10 10 0 6 -4 10 -10 10 -5 0
-10 -4 -10 -10z"/>
<path d="M3493 1735 c-19 -21 -16 -27 7 -13 11 7 20 16 20 20 0 12 -14 9 -27
-7z"/>
<path d="M3705 1740 c3 -5 11 -10 16 -10 6 0 7 5 4 10 -3 6 -11 10 -16 10 -6
0 -7 -4 -4 -10z"/>
<path d="M3530 1720 c0 -5 5 -10 11 -10 5 0 7 5 4 10 -3 6 -8 10 -11 10 -2 0
-4 -4 -4 -10z"/>
<path d="M878 1713 c7 -3 16 -2 19 1 4 3 -2 6 -13 5 -11 0 -14 -3 -6 -6z"/>
<path d="M847 1686 c-4 -10 -5 -21 -2 -24 9 -9 17 6 13 25 -3 17 -4 17 -11 -1z"/>
<path d="M2047 1659 c-10 -11 -25 -18 -33 -15 -8 3 -14 1 -14 -4 0 -22 47 -10
58 15 14 30 12 31 -11 4z"/>
<path d="M3480 1665 c-7 -9 -10 -18 -7 -21 3 -3 10 4 17 15 13 25 8 27 -10 6z"/>
<path d="M2015 1660 c3 -5 8 -10 11 -10 2 0 4 5 4 10 0 6 -5 10 -11 10 -5 0
-7 -4 -4 -10z"/>
<path d="M2135 1650 c-3 -5 -2 -10 4 -10 5 0 13 5 16 10 3 6 2 10 -4 10 -5 0
-13 -4 -16 -10z"/>
<path d="M3146 1647 c3 -10 9 -15 12 -12 3 3 0 11 -7 18 -10 9 -11 8 -5 -6z"/>
<path d="M2320 1630 c0 -5 5 -10 10 -10 6 0 10 5 10 10 0 6 -4 10 -10 10 -5 0
-10 -4 -10 -10z"/>
<path d="M3380 1629 c0 -5 5 -7 10 -4 6 3 10 8 10 11 0 2 -4 4 -10 4 -5 0 -10
-5 -10 -11z"/>
<path d="M2090 1620 c0 -5 7 -7 15 -4 8 4 15 8 15 10 0 2 -7 4 -15 4 -8 0 -15
-4 -15 -10z"/>
<path d="M3820 1619 c0 -5 5 -7 10 -4 6 3 10 8 10 11 0 2 -4 4 -10 4 -5 0 -10
-5 -10 -11z"/>
<path d="M575 1610 c-3 -5 -1 -10 4 -10 6 0 11 5 11 10 0 6 -2 10 -4 10 -3 0
-8 -4 -11 -10z"/>
<path d="M2285 1600 c3 -5 8 -10 11 -10 2 0 4 5 4 10 0 6 -5 10 -11 10 -5 0
-7 -4 -4 -10z"/>
<path d="M1370 1591 c0 -6 4 -13 10 -16 6 -3 7 1 4 9 -7 18 -14 21 -14 7z"/>
<path d="M3640 1585 c0 -8 2 -15 4 -15 2 0 6 7 10 15 3 8 1 15 -4 15 -6 0 -10
-7 -10 -15z"/>
<path d="M3440 1580 c0 -5 4 -10 9 -10 6 0 13 5 16 10 3 6 -1 10 -9 10 -9 0
-16 -4 -16 -10z"/>
<path d="M3985 1580 c3 -5 8 -10 11 -10 2 0 4 5 4 10 0 6 -5 10 -11 10 -5 0
-7 -4 -4 -10z"/>
<path d="M776 1571 c-4 -5 -2 -12 3 -15 5 -4 12 -2 15 3 4 5 2 12 -3 15 -5 4
-12 2 -15 -3z"/>
<path d="M3685 1570 c3 -5 8 -10 11 -10 2 0 4 5 4 10 0 6 -5 10 -11 10 -5 0
-7 -4 -4 -10z"/>
<path d="M2070 1550 c0 -19 3 -21 12 -12 9 9 9 15 0 24 -9 9 -12 7 -12 -12z"/>
<path d="M3885 1560 c-3 -5 1 -10 10 -10 9 0 13 5 10 10 -3 6 -8 10 -10 10 -2
0 -7 -4 -10 -10z"/>
<path d="M820 1541 c0 -12 5 -21 10 -21 6 0 10 6 10 14 0 8 -4 18 -10 21 -5 3
-10 -3 -10 -14z"/>
<path d="M2270 1551 c0 -9 24 -21 41 -21 5 0 9 4 9 10 0 5 -7 7 -15 4 -8 -4
-15 -1 -15 5 0 6 -4 11 -10 11 -5 0 -10 -4 -10 -9z"/>
<path d="M755 1530 c3 -5 8 -10 11 -10 2 0 4 5 4 10 0 6 -5 10 -11 10 -5 0 -7
-4 -4 -10z"/>
<path d="M1735 1530 c-3 -6 1 -7 9 -4 18 7 21 14 7 14 -6 0 -13 -4 -16 -10z"/>
<path d="M2250 1520 c-13 -8 -12 -10 3 -10 9 0 17 5 17 10 0 12 -1 12 -20 0z"/>
<path d="M3546 1517 c3 -10 9 -15 12 -12 3 3 0 11 -7 18 -10 9 -11 8 -5 -6z"/>
<path d="M2070 1515 c0 -5 5 -17 10 -25 5 -8 10 -10 10 -5 0 6 -5 17 -10 25
-5 8 -10 11 -10 5z"/>
<path d="M796 1495 c-3 -8 -1 -15 4 -15 6 0 10 7 10 15 0 8 -2 15 -4 15 -2 0
-6 -7 -10 -15z"/>
<path d="M1451 1457 c2 -26 6 -47 10 -47 7 0 0 81 -8 90 -2 2 -3 -17 -2 -43z"/>
<path d="M3671 1484 c0 -11 3 -14 6 -6 3 7 2 16 -1 19 -3 4 -6 -2 -5 -13z"/>
<path d="M2276 1473 c-6 -14 -5 -15 5 -6 7 7 10 15 7 18 -3 3 -9 -2 -12 -12z"/>
<path d="M3551 1474 c0 -11 3 -14 6 -6 3 7 2 16 -1 19 -3 4 -6 -2 -5 -13z"/>
<path d="M985 1470 c-3 -5 -1 -10 4 -10 6 0 11 5 11 10 0 6 -2 10 -4 10 -3 0
-8 -4 -11 -10z"/>
<path d="M2101 1464 c0 -11 3 -14 6 -6 3 7 2 16 -1 19 -3 4 -6 -2 -5 -13z"/>
<path d="M2321 1464 c0 -11 3 -14 6 -6 3 7 2 16 -1 19 -3 4 -6 -2 -5 -13z"/>
<path d="M3755 1460 c3 -5 8 -10 11 -10 2 0 4 5 4 10 0 6 -5 10 -11 10 -5 0
-7 -4 -4 -10z"/>
<path d="M4038 1463 c7 -3 16 -2 19 1 4 3 -2 6 -13 5 -11 0 -14 -3 -6 -6z"/>
<path d="M3590 1435 c7 -8 17 -15 22 -15 5 0 3 7 -6 15 -8 8 -18 15 -22 15 -3
0 -1 -7 6 -15z"/>
<path d="M945 1430 c-16 -7 -17 -9 -3 -9 9 -1 20 4 23 9 7 11 7 11 -20 0z"/>
<path d="M910 1394 c0 -8 5 -12 10 -9 6 3 10 10 10 16 0 5 -4 9 -10 9 -5 0
-10 -7 -10 -16z"/>
<path d="M3840 1400 c0 -5 5 -10 10 -10 6 0 10 5 10 10 0 6 -4 10 -10 10 -5 0
-10 -4 -10 -10z"/>
<path d="M3870 1374 c0 -8 5 -12 10 -9 6 4 8 11 5 16 -9 14 -15 11 -15 -7z"/>
<path d="M4240 1380 c0 -5 5 -10 11 -10 5 0 7 5 4 10 -3 6 -8 10 -11 10 -2 0
-4 -4 -4 -10z"/>
<path d="M3511 1324 c0 -11 3 -14 6 -6 3 7 2 16 -1 19 -3 4 -6 -2 -5 -13z"/>
<path d="M3910 1330 c0 -5 5 -10 11 -10 5 0 7 5 4 10 -3 6 -8 10 -11 10 -2 0
-4 -4 -4 -10z"/>
<path d="M1050 1310 c0 -5 5 -10 10 -10 6 0 10 5 10 10 0 6 -4 10 -10 10 -5 0
-10 -4 -10 -10z"/>
<path d="M1340 1306 c0 -2 7 -7 16 -10 8 -3 12 -2 9 4 -6 10 -25 14 -25 6z"/>
<path d="M3800 1265 c0 -8 5 -15 10 -15 6 0 10 -9 10 -20 0 -11 4 -20 9 -20
16 0 8 34 -11 53 -15 14 -18 14 -18 2z"/>
<path d="M3955 1270 c-3 -5 -1 -10 4 -10 6 0 11 5 11 10 0 6 -2 10 -4 10 -3 0
-8 -4 -11 -10z"/>
<path d="M3913 1256 c21 -16 22 -26 2 -26 -8 0 -15 -4 -15 -10 0 -14 11 -12
34 5 20 15 20 15 0 30 -10 8 -23 14 -29 14 -5 0 -2 -6 8 -13z"/>
<path d="M871 1244 c0 -11 3 -14 6 -6 3 7 2 16 -1 19 -3 4 -6 -2 -5 -13z"/>
<path d="M1070 1250 c0 -5 5 -10 10 -10 6 0 10 5 10 10 0 6 -4 10 -10 10 -5 0
-10 -4 -10 -10z"/>
<path d="M1490 1218 c0 -4 7 -8 15 -8 8 0 15 4 15 8 0 5 -7 9 -15 9 -8 0 -15
-4 -15 -9z"/>
<path d="M1570 1215 c0 -9 6 -12 15 -9 8 4 15 10 15 15 0 5 -7 9 -15 9 -8 0
-15 -7 -15 -15z"/>
<path d="M840 1184 c0 -8 5 -12 10 -9 6 3 10 10 10 16 0 5 -4 9 -10 9 -5 0
-10 -7 -10 -16z"/>
<path d="M1638 1193 c7 -3 16 -2 19 1 4 3 -2 6 -13 5 -11 0 -14 -3 -6 -6z"/>
<path d="M3850 1196 c0 -2 7 -7 16 -10 8 -3 12 -2 9 4 -6 10 -25 14 -25 6z"/>
<path d="M1891 1134 c0 -11 3 -14 6 -6 3 7 2 16 -1 19 -3 4 -6 -2 -5 -13z"/>
<path d="M695 1130 c-3 -5 -1 -10 4 -10 6 0 11 5 11 10 0 6 -2 10 -4 10 -3 0
-8 -4 -11 -10z"/>
<path d="M1665 1130 c-3 -5 -1 -10 4 -10 6 0 11 5 11 10 0 6 -2 10 -4 10 -3 0
-8 -4 -11 -10z"/>
<path d="M781 1104 c0 -11 3 -14 6 -6 3 7 2 16 -1 19 -3 4 -6 -2 -5 -13z"/>
<path d="M2142 1100 c0 -14 2 -19 5 -12 2 6 2 18 0 25 -3 6 -5 1 -5 -13z"/>
<path d="M802 1070 c0 -14 2 -19 5 -12 2 6 2 18 0 25 -3 6 -5 1 -5 -13z"/>
<path d="M4595 1080 c-3 -5 -1 -10 4 -10 6 0 11 5 11 10 0 6 -2 10 -4 10 -3 0
-8 -4 -11 -10z"/>
<path d="M730 1060 c0 -19 3 -21 12 -12 9 9 9 15 0 24 -9 9 -12 7 -12 -12z"/>
<path d="M4660 1009 c0 -5 5 -7 10 -4 6 3 10 8 10 11 0 2 -4 4 -10 4 -5 0 -10
-5 -10 -11z"/>
<path d="M692 990 c0 -14 2 -19 5 -12 2 6 2 18 0 25 -3 6 -5 1 -5 -13z"/>
<path d="M4641 974 c0 -11 3 -14 6 -6 3 7 2 16 -1 19 -3 4 -6 -2 -5 -13z"/>
<path d="M710 949 c0 -5 5 -7 10 -4 6 3 10 8 10 11 0 2 -4 4 -10 4 -5 0 -10
-5 -10 -11z"/>
<path d="M1910 950 c0 -5 5 -10 10 -10 6 0 10 5 10 10 0 6 -4 10 -10 10 -5 0
-10 -4 -10 -10z"/>
<path d="M1970 950 c0 -5 7 -10 15 -10 8 0 15 5 15 10 0 6 -7 10 -15 10 -8 0
-15 -4 -15 -10z"/>
<path d="M2105 910 c-10 -11 -15 -20 -11 -20 11 0 39 30 34 36 -3 2 -13 -5
-23 -16z"/>
<path d="M730 895 c0 -8 -5 -15 -11 -15 -5 0 -7 -5 -4 -11 5 -6 12 -4 21 8 16
22 18 33 4 33 -5 0 -10 -7 -10 -15z"/>
<path d="M2030 889 c0 -5 5 -7 10 -4 6 3 10 8 10 11 0 2 -4 4 -10 4 -5 0 -10
-5 -10 -11z"/>
<path d="M2071 854 c0 -11 3 -14 6 -6 3 7 2 16 -1 19 -3 4 -6 -2 -5 -13z"/>
<path d="M860 849 c0 -5 5 -7 10 -4 6 3 10 8 10 11 0 2 -4 4 -10 4 -5 0 -10
-5 -10 -11z"/>
<path d="M3780 810 c0 -5 5 -10 11 -10 5 0 7 5 4 10 -3 6 -8 10 -11 10 -2 0
-4 -4 -4 -10z"/>
<path d="M2210 790 c0 -11 2 -20 4 -20 2 0 6 9 9 20 3 11 1 20 -4 20 -5 0 -9
-9 -9 -20z"/>
<path d="M575 760 c3 -5 8 -10 11 -10 2 0 4 5 4 10 0 6 -5 10 -11 10 -5 0 -7
-4 -4 -10z"/>
<path d="M2000 739 c0 -5 5 -7 10 -4 6 3 10 8 10 11 0 2 -4 4 -10 4 -5 0 -10
-5 -10 -11z"/>
<path d="M2025 720 c-3 -5 -1 -10 4 -10 6 0 11 5 11 10 0 6 -2 10 -4 10 -3 0
-8 -4 -11 -10z"/>
<path d="M660 711 c0 -5 5 -13 10 -16 6 -3 10 -2 10 4 0 5 -4 13 -10 16 -5 3
-10 2 -10 -4z"/>
<path d="M3825 700 c-3 -5 -1 -10 4 -10 6 0 11 5 11 10 0 6 -2 10 -4 10 -3 0
-8 -4 -11 -10z"/>
<path d="M715 660 c10 -11 23 -20 28 -20 6 0 2 9 -8 20 -10 11 -23 20 -28 20
-6 0 -2 -9 8 -20z"/>
<path d="M4630 660 c-8 -5 -12 -12 -9 -15 4 -3 12 1 19 10 14 17 11 19 -10 5z"/>
<path d="M730 600 c0 -13 11 -13 30 0 12 8 11 10 -7 10 -13 0 -23 -4 -23 -10z"/>
<path d="M3980 600 c0 -5 5 -10 11 -10 5 0 7 5 4 10 -3 6 -8 10 -11 10 -2 0
-4 -4 -4 -10z"/>
<path d="M820 580 c0 -5 5 -10 10 -10 6 0 10 5 10 10 0 6 -4 10 -10 10 -5 0
-10 -4 -10 -10z"/>
<path d="M1750 555 c7 -8 16 -12 21 -9 13 8 1 24 -18 24 -13 0 -13 -3 -3 -15z"/>
<path d="M1860 562 c0 -5 -10 -14 -22 -20 -22 -10 -22 -11 -3 -11 11 -1 26 8
33 19 7 12 8 20 2 20 -5 0 -10 -4 -10 -8z"/>
<path d="M1800 530 c0 -11 4 -20 9 -20 5 0 7 9 4 20 -3 11 -7 20 -9 20 -2 0
-4 -9 -4 -20z"/>
<path d="M1723 505 c-7 -8 -13 -22 -12 -32 0 -14 2 -15 6 -3 3 8 15 23 27 32
15 13 17 18 6 17 -8 0 -21 -6 -27 -14z"/>
<path d="M4205 490 c3 -5 8 -10 11 -10 2 0 4 5 4 10 0 6 -5 10 -11 10 -5 0 -7
-4 -4 -10z"/>
<path d="M1935 470 c-3 -5 -1 -10 4 -10 6 0 11 5 11 10 0 6 -2 10 -4 10 -3 0
-8 -4 -11 -10z"/>
<path d="M1950 420 c0 -5 5 -10 10 -10 6 0 10 5 10 10 0 6 -4 10 -10 10 -5 0
-10 -4 -10 -10z"/>
<path d="M4270 420 c0 -5 7 -10 15 -10 8 0 15 5 15 10 0 6 -7 10 -15 10 -8 0
-15 -4 -15 -10z"/>
<path d="M4358 423 c7 -3 16 -2 19 1 4 3 -2 6 -13 5 -11 0 -14 -3 -6 -6z"/>
</g>
</svg>
